<svg width="1180" height="616" viewBox="0 0 1180 616" fill="none" xmlns="http://www.w3.org/2000/svg">
<rect width="200" height="200" rx="20" fill="#EEF4ED"/>
<path d="M1.74 237.59C1.74 235.81 2 234.24 2.52 232.88C3.06 231.52 3.78 230.39 4.68 229.49C5.6 228.57 6.66 227.88 7.86 227.42C9.08 226.96 10.37 226.73 11.73 226.73C13.07 226.73 14.33 226.96 15.51 227.42C16.71 227.88 17.76 228.57 18.66 229.49C19.56 230.39 20.27 231.52 20.79 232.88C21.33 234.24 21.6 235.81 21.6 237.59C21.6 239.37 21.33 240.94 20.79 242.3C20.27 243.66 19.56 244.8 18.66 245.72C17.76 246.62 16.71 247.3 15.51 247.76C14.33 248.22 13.07 248.45 11.73 248.45C10.37 248.45 9.08 248.22 7.86 247.76C6.66 247.3 5.6 246.62 4.68 245.72C3.78 244.8 3.06 243.66 2.52 242.3C2 240.94 1.74 239.37 1.74 237.59ZM4.8 237.59C4.8 238.85 4.96 240 5.28 241.04C5.6 242.06 6.05 242.93 6.63 243.65C7.23 244.37 7.95 244.93 8.79 245.33C9.65 245.71 10.61 245.9 11.67 245.9C12.73 245.9 13.68 245.71 14.52 245.33C15.36 244.93 16.07 244.37 16.65 243.65C17.25 242.93 17.71 242.06 18.03 241.04C18.35 240 18.51 238.85 18.51 237.59C18.51 236.33 18.35 235.19 18.03 234.17C17.71 233.13 17.25 232.25 16.65 231.53C16.07 230.81 15.36 230.26 14.52 229.88C13.68 229.48 12.73 229.28 11.67 229.28C10.61 229.28 9.65 229.48 8.79 229.88C7.95 230.26 7.23 230.81 6.63 231.53C6.05 232.25 5.6 233.13 5.28 234.17C4.96 235.19 4.8 236.33 4.8 237.59ZM41.4396 224.72C42.2596 224.72 42.9596 224.78 43.5396 224.9C44.1396 225.02 44.5596 225.13 44.7996 225.23L44.2896 227.63C44.0496 227.51 43.7096 227.4 43.2696 227.3C42.8296 227.18 42.2896 227.12 41.6496 227.12C40.3496 227.12 39.4396 227.48 38.9196 228.2C38.3996 228.9 38.1396 229.85 38.1396 231.05V232.4H44.1396V234.74H38.1396V248H35.3496V230.99C35.3496 228.99 35.8396 227.45 36.8196 226.37C37.7996 225.27 39.3396 224.72 41.4396 224.72ZM53.1396 224.72C53.9596 224.72 54.6596 224.78 55.2396 224.9C55.8396 225.02 56.2596 225.13 56.4996 225.23L55.9896 227.63C55.7496 227.51 55.4096 227.4 54.9696 227.3C54.5296 227.18 53.9896 227.12 53.3496 227.12C52.0496 227.12 51.1396 227.48 50.6196 228.2C50.0996 228.9 49.8396 229.85 49.8396 231.05V232.4H55.8396V234.74H49.8396V248H47.0496V230.99C47.0496 228.99 47.5396 227.45 48.5196 226.37C49.4996 225.27 51.0396 224.72 53.1396 224.72ZM96.334 233.9C95.494 236.58 94.644 239.06 93.784 241.34C92.924 243.62 92.064 245.84 91.204 248H88.294C87.234 244.94 86.294 241.71 85.474 238.31C84.674 234.91 83.924 231.21 83.224 227.21H86.284C86.564 228.77 86.854 230.33 87.154 231.89C87.454 233.45 87.764 234.97 88.084 236.45C88.404 237.91 88.724 239.31 89.044 240.65C89.364 241.99 89.694 243.23 90.034 244.37C90.834 242.27 91.684 239.97 92.584 237.47C93.484 234.95 94.324 232.35 95.104 229.67H97.624C98.404 232.35 99.254 234.95 100.174 237.47C101.094 239.97 101.954 242.27 102.754 244.37C103.074 243.25 103.394 242.02 103.714 240.68C104.034 239.34 104.344 237.94 104.644 236.48C104.964 235 105.274 233.48 105.574 231.92C105.874 230.34 106.164 228.77 106.444 227.21H109.414C108.694 231.21 107.924 234.91 107.104 238.31C106.304 241.71 105.384 244.94 104.344 248H101.434C100.554 245.84 99.694 243.62 98.854 241.34C98.014 239.06 97.174 236.58 96.334 233.9ZM122.245 248V225.2L125.035 224.72V232.7C125.555 232.5 126.105 232.35 126.685 232.25C127.285 232.13 127.875 232.07 128.455 232.07C129.695 232.07 130.725 232.25 131.545 232.61C132.365 232.95 133.015 233.44 133.495 234.08C133.995 234.7 134.345 235.45 134.545 236.33C134.745 237.21 134.845 238.18 134.845 239.24V248H132.055V239.84C132.055 238.88 131.985 238.06 131.845 237.38C131.725 236.7 131.515 236.15 131.215 235.73C130.915 235.31 130.515 235.01 130.015 234.83C129.515 234.63 128.895 234.53 128.155 234.53C127.855 234.53 127.545 234.55 127.225 234.59C126.905 234.63 126.595 234.68 126.295 234.74C126.015 234.78 125.755 234.83 125.515 234.89C125.295 234.95 125.135 235 125.035 235.04V248H122.245ZM151.774 248H148.984V232.4H151.774V248ZM150.364 229.58C149.864 229.58 149.434 229.42 149.074 229.1C148.734 228.76 148.564 228.31 148.564 227.75C148.564 227.19 148.734 226.75 149.074 226.43C149.434 226.09 149.864 225.92 150.364 225.92C150.864 225.92 151.284 226.09 151.624 226.43C151.984 226.75 152.164 227.19 152.164 227.75C152.164 228.31 151.984 228.76 151.624 229.1C151.284 229.42 150.864 229.58 150.364 229.58ZM168.782 232.4H174.692V234.74H168.782V241.94C168.782 242.72 168.842 243.37 168.962 243.89C169.082 244.39 169.262 244.79 169.502 245.09C169.742 245.37 170.042 245.57 170.402 245.69C170.762 245.81 171.182 245.87 171.662 245.87C172.502 245.87 173.172 245.78 173.672 245.6C174.192 245.4 174.552 245.26 174.752 245.18L175.292 247.49C175.012 247.63 174.522 247.8 173.822 248C173.122 248.22 172.322 248.33 171.422 248.33C170.362 248.33 169.482 248.2 168.782 247.94C168.102 247.66 167.552 247.25 167.132 246.71C166.712 246.17 166.412 245.51 166.232 244.73C166.072 243.93 165.992 243.01 165.992 241.97V228.05L168.782 227.57V232.4ZM186.679 240.23C186.679 238.85 186.879 237.65 187.279 236.63C187.679 235.59 188.209 234.73 188.869 234.05C189.529 233.37 190.289 232.86 191.149 232.52C192.009 232.18 192.889 232.01 193.789 232.01C195.889 232.01 197.499 232.67 198.619 233.99C199.739 235.29 200.299 237.28 200.299 239.96C200.299 240.08 200.299 240.24 200.299 240.44C200.299 240.62 200.289 240.79 200.269 240.95H189.589C189.709 242.57 190.179 243.8 190.999 244.64C191.819 245.48 193.099 245.9 194.839 245.9C195.819 245.9 196.639 245.82 197.299 245.66C197.979 245.48 198.489 245.31 198.829 245.15L199.219 247.49C198.879 247.67 198.279 247.86 197.419 248.06C196.579 248.26 195.619 248.36 194.539 248.36C193.179 248.36 191.999 248.16 190.999 247.76C190.019 247.34 189.209 246.77 188.569 246.05C187.929 245.33 187.449 244.48 187.129 243.5C186.829 242.5 186.679 241.41 186.679 240.23ZM197.389 238.7C197.409 237.44 197.089 236.41 196.429 235.61C195.789 234.79 194.899 234.38 193.759 234.38C193.119 234.38 192.549 234.51 192.049 234.77C191.569 235.01 191.159 235.33 190.819 235.73C190.479 236.13 190.209 236.59 190.009 237.11C189.829 237.63 189.709 238.16 189.649 238.7H197.389ZM8.52 266.7H13.38L14.43 261.21H16.95L15.9 266.7H18.54V268.92H15.45L14.43 274.29H18.54V276.51H14.01L12.96 282H10.44L11.49 276.51H6.63L5.58 282H3.06L4.11 276.51H1.47V274.29H4.53L5.55 268.92H1.47V266.7H6L7.05 261.21H9.57L8.52 266.7ZM7.05 274.29H11.91L12.96 268.92H8.1L7.05 274.29ZM32.1898 282V261.21H44.8798V263.7H35.0998V269.88H43.7998V272.31H35.0998V279.51H45.6298V282H32.1898ZM58.9284 282V261.21H71.6184V263.7H61.8384V269.88H70.5384V272.31H61.8384V279.51H72.3684V282H58.9284ZM85.6671 282V261.21H98.2071V263.7H88.5771V269.97H97.1271V272.43H88.5771V282H85.6671ZM110 274.8C110.38 273.92 110.9 272.9 111.56 271.74C112.22 270.56 112.96 269.35 113.78 268.11C114.62 266.87 115.51 265.65 116.45 264.45C117.41 263.25 118.37 262.17 119.33 261.21H122V274.41H124.46V276.69H122V282H119.3V276.69H110V274.8ZM119.3 264.51C118.7 265.15 118.09 265.87 117.47 266.67C116.87 267.45 116.28 268.27 115.7 269.13C115.12 269.99 114.57 270.87 114.05 271.77C113.55 272.67 113.1 273.55 112.7 274.41H119.3V264.51ZM137.914 282V261.21H150.604V263.7H140.824V269.88H149.524V272.31H140.824V279.51H151.354V282H137.914ZM181.723 271.59C181.723 273.39 181.443 274.96 180.883 276.3C180.323 277.62 179.533 278.72 178.513 279.6C177.493 280.46 176.273 281.11 174.853 281.55C173.433 281.97 171.873 282.18 170.173 282.18C169.333 282.18 168.403 282.14 167.383 282.06C166.383 282 165.473 281.87 164.653 281.67V261.51C165.473 261.31 166.383 261.18 167.383 261.12C168.403 261.04 169.333 261 170.173 261C171.873 261 173.433 261.22 174.853 261.66C176.273 262.08 177.493 262.73 178.513 263.61C179.533 264.47 180.323 265.57 180.883 266.91C181.443 268.23 181.723 269.79 181.723 271.59ZM170.413 279.63C173.173 279.63 175.233 278.93 176.593 277.53C177.953 276.11 178.633 274.13 178.633 271.59C178.633 269.05 177.953 267.08 176.593 265.68C175.233 264.26 173.173 263.55 170.413 263.55C169.593 263.55 168.953 263.56 168.493 263.58C168.053 263.6 167.743 263.62 167.563 263.64V279.54C167.743 279.56 168.053 279.58 168.493 279.6C168.953 279.62 169.593 279.63 170.413 279.63Z" fill="#1E5BA1"/>
<rect x="493" width="200" height="200" rx="20" fill="#8DA9C4"/>
<path d="M549.241 245.48V248H536.731V227.21H539.641V245.48H549.241ZM564.498 248H561.708V232.4H564.498V248ZM563.088 229.58C562.588 229.58 562.158 229.42 561.798 229.1C561.458 228.76 561.288 228.31 561.288 227.75C561.288 227.19 561.458 226.75 561.798 226.43C562.158 226.09 562.588 225.92 563.088 225.92C563.588 225.92 564.008 226.09 564.348 226.43C564.708 226.75 564.888 227.19 564.888 227.75C564.888 228.31 564.708 228.76 564.348 229.1C564.008 229.42 563.588 229.58 563.088 229.58ZM588.676 246.44C588.436 246.6 587.966 246.81 587.266 247.07C586.586 247.31 585.786 247.43 584.866 247.43C583.926 247.43 583.036 247.28 582.196 246.98C581.376 246.68 580.656 246.22 580.036 245.6C579.416 244.96 578.926 244.17 578.566 243.23C578.206 242.29 578.026 241.17 578.026 239.87C578.026 238.73 578.196 237.69 578.536 236.75C578.876 235.79 579.366 234.97 580.006 234.29C580.666 233.59 581.466 233.05 582.406 232.67C583.346 232.27 584.406 232.07 585.586 232.07C586.886 232.07 588.016 232.17 588.976 232.37C589.956 232.55 590.776 232.72 591.436 232.88V246.8C591.436 249.2 590.816 250.94 589.576 252.02C588.336 253.1 586.456 253.64 583.936 253.64C582.956 253.64 582.026 253.56 581.146 253.4C580.286 253.24 579.536 253.05 578.896 252.83L579.406 250.4C579.966 250.62 580.646 250.81 581.446 250.97C582.266 251.15 583.116 251.24 583.996 251.24C585.656 251.24 586.846 250.91 587.566 250.25C588.306 249.59 588.676 248.54 588.676 247.1V246.44ZM588.646 234.86C588.366 234.78 587.986 234.71 587.506 234.65C587.046 234.57 586.416 234.53 585.616 234.53C584.116 234.53 582.956 235.02 582.136 236C581.336 236.98 580.936 238.28 580.936 239.9C580.936 240.8 581.046 241.57 581.266 242.21C581.506 242.85 581.816 243.38 582.196 243.8C582.596 244.22 583.046 244.53 583.546 244.73C584.066 244.93 584.596 245.03 585.136 245.03C585.876 245.03 586.556 244.93 587.176 244.73C587.796 244.51 588.286 244.26 588.646 243.98V234.86ZM605.84 248V225.2L608.63 224.72V232.7C609.15 232.5 609.7 232.35 610.28 232.25C610.88 232.13 611.47 232.07 612.05 232.07C613.29 232.07 614.32 232.25 615.14 232.61C615.96 232.95 616.61 233.44 617.09 234.08C617.59 234.7 617.94 235.45 618.14 236.33C618.34 237.21 618.44 238.18 618.44 239.24V248H615.65V239.84C615.65 238.88 615.58 238.06 615.44 237.38C615.32 236.7 615.11 236.15 614.81 235.73C614.51 235.31 614.11 235.01 613.61 234.83C613.11 234.63 612.49 234.53 611.75 234.53C611.45 234.53 611.14 234.55 610.82 234.59C610.5 234.63 610.19 234.68 609.89 234.74C609.61 234.78 609.35 234.83 609.11 234.89C608.89 234.95 608.73 235 608.63 235.04V248H605.84ZM635.188 232.4H641.098V234.74H635.188V241.94C635.188 242.72 635.248 243.37 635.368 243.89C635.488 244.39 635.668 244.79 635.908 245.09C636.148 245.37 636.448 245.57 636.808 245.69C637.168 245.81 637.588 245.87 638.068 245.87C638.908 245.87 639.578 245.78 640.078 245.6C640.598 245.4 640.958 245.26 641.158 245.18L641.698 247.49C641.418 247.63 640.928 247.8 640.228 248C639.528 248.22 638.728 248.33 637.828 248.33C636.768 248.33 635.888 248.2 635.188 247.94C634.508 247.66 633.958 247.25 633.538 246.71C633.118 246.17 632.818 245.51 632.638 244.73C632.478 243.93 632.398 243.01 632.398 241.97V228.05L635.188 227.57V232.4ZM556.058 282.18C555.638 282.18 555.178 282.17 554.678 282.15C554.198 282.13 553.708 282.1 553.208 282.06C552.728 282.02 552.248 281.97 551.768 281.91C551.288 281.85 550.848 281.77 550.448 281.67V261.51C550.848 261.41 551.288 261.33 551.768 261.27C552.248 261.21 552.728 261.16 553.208 261.12C553.708 261.08 554.198 261.05 554.678 261.03C555.158 261.01 555.608 261 556.028 261C557.228 261 558.348 261.09 559.388 261.27C560.448 261.45 561.358 261.76 562.118 262.2C562.898 262.62 563.508 263.18 563.948 263.88C564.388 264.58 564.608 265.44 564.608 266.46C564.608 267.6 564.338 268.54 563.798 269.28C563.258 270 562.538 270.54 561.638 270.9C562.858 271.26 563.828 271.83 564.548 272.61C565.268 273.39 565.628 274.49 565.628 275.91C565.628 277.99 564.858 279.56 563.318 280.62C561.798 281.66 559.378 282.18 556.058 282.18ZM553.328 272.31V279.63C553.548 279.65 553.808 279.67 554.108 279.69C554.368 279.71 554.668 279.73 555.008 279.75C555.368 279.75 555.778 279.75 556.238 279.75C557.098 279.75 557.908 279.7 558.668 279.6C559.448 279.48 560.128 279.28 560.708 279C561.288 278.72 561.748 278.33 562.088 277.83C562.448 277.33 562.628 276.7 562.628 275.94C562.628 275.26 562.498 274.69 562.238 274.23C561.978 273.75 561.598 273.37 561.098 273.09C560.618 272.81 560.038 272.61 559.358 272.49C558.678 272.37 557.918 272.31 557.078 272.31H553.328ZM553.328 269.97H556.388C557.108 269.97 557.788 269.92 558.428 269.82C559.068 269.72 559.618 269.54 560.078 269.28C560.558 269.02 560.928 268.68 561.188 268.26C561.468 267.84 561.608 267.31 561.608 266.67C561.608 266.07 561.468 265.57 561.188 265.17C560.908 264.75 560.518 264.42 560.018 264.18C559.538 263.92 558.968 263.73 558.308 263.61C557.648 263.49 556.948 263.43 556.208 263.43C555.468 263.43 554.888 263.44 554.468 263.46C554.048 263.48 553.668 263.51 553.328 263.55V269.97ZM583.825 282.3C582.105 282.26 580.885 281.89 580.165 281.19C579.445 280.49 579.085 279.4 579.085 277.92V259.2L581.875 258.72V277.47C581.875 277.93 581.915 278.31 581.995 278.61C582.075 278.91 582.205 279.15 582.385 279.33C582.565 279.51 582.805 279.65 583.105 279.75C583.405 279.83 583.775 279.9 584.215 279.96L583.825 282.3ZM609.368 281.55C608.728 281.71 607.878 281.88 606.818 282.06C605.778 282.24 604.568 282.33 603.188 282.33C601.988 282.33 600.978 282.16 600.158 281.82C599.338 281.46 598.678 280.96 598.178 280.32C597.678 279.68 597.318 278.93 597.098 278.07C596.878 277.19 596.768 276.22 596.768 275.16V266.4H599.558V274.56C599.558 276.46 599.858 277.82 600.458 278.64C601.058 279.46 602.068 279.87 603.488 279.87C603.788 279.87 604.098 279.86 604.418 279.84C604.738 279.82 605.038 279.8 605.318 279.78C605.598 279.74 605.848 279.71 606.068 279.69C606.308 279.65 606.478 279.61 606.578 279.57V266.4H609.368V281.55ZM622.905 274.23C622.905 272.85 623.105 271.65 623.505 270.63C623.905 269.59 624.435 268.73 625.095 268.05C625.755 267.37 626.515 266.86 627.375 266.52C628.235 266.18 629.115 266.01 630.015 266.01C632.115 266.01 633.725 266.67 634.845 267.99C635.965 269.29 636.525 271.28 636.525 273.96C636.525 274.08 636.525 274.24 636.525 274.44C636.525 274.62 636.515 274.79 636.495 274.95H625.815C625.935 276.57 626.405 277.8 627.225 278.64C628.045 279.48 629.325 279.9 631.065 279.9C632.045 279.9 632.865 279.82 633.525 279.66C634.205 279.48 634.715 279.31 635.055 279.15L635.445 281.49C635.105 281.67 634.505 281.86 633.645 282.06C632.805 282.26 631.845 282.36 630.765 282.36C629.405 282.36 628.225 282.16 627.225 281.76C626.245 281.34 625.435 280.77 624.795 280.05C624.155 279.33 623.675 278.48 623.355 277.5C623.055 276.5 622.905 275.41 622.905 274.23ZM633.615 272.7C633.635 271.44 633.315 270.41 632.655 269.61C632.015 268.79 631.125 268.38 629.985 268.38C629.345 268.38 628.775 268.51 628.275 268.77C627.795 269.01 627.385 269.33 627.045 269.73C626.705 270.13 626.435 270.59 626.235 271.11C626.055 271.63 625.935 272.16 625.875 272.7H633.615ZM507.652 300.7H512.512L513.562 295.21H516.082L515.032 300.7H517.672V302.92H514.582L513.562 308.29H517.672V310.51H513.142L512.092 316H509.572L510.622 310.51H505.762L504.712 316H502.192L503.242 310.51H500.602V308.29H503.662L504.682 302.92H500.602V300.7H505.132L506.182 295.21H508.702L507.652 300.7ZM506.182 308.29H511.042L512.092 302.92H507.232L506.182 308.29ZM544.011 310.6C544.011 311.44 543.861 312.22 543.561 312.94C543.281 313.64 542.851 314.26 542.271 314.8C541.711 315.32 541.001 315.72 540.141 316C539.281 316.3 538.291 316.45 537.171 316.45C535.871 316.45 534.781 316.27 533.901 315.91C533.041 315.53 532.351 315.06 531.831 314.5C531.311 313.94 530.941 313.33 530.721 312.67C530.501 311.99 530.391 311.35 530.391 310.75C530.391 310.17 530.481 309.62 530.661 309.1C530.861 308.56 531.111 308.06 531.411 307.6C531.731 307.14 532.091 306.73 532.491 306.37C532.911 305.99 533.351 305.66 533.811 305.38C531.851 304.26 530.871 302.61 530.871 300.43C530.871 299.67 531.021 298.95 531.321 298.27C531.621 297.57 532.041 296.96 532.581 296.44C533.141 295.92 533.811 295.51 534.591 295.21C535.371 294.89 536.241 294.73 537.201 294.73C538.321 294.73 539.281 294.9 540.081 295.24C540.881 295.58 541.531 296.02 542.031 296.56C542.551 297.08 542.921 297.66 543.141 298.3C543.381 298.94 543.501 299.56 543.501 300.16C543.501 300.74 543.411 301.29 543.231 301.81C543.071 302.31 542.841 302.78 542.541 303.22C542.261 303.66 541.931 304.05 541.551 304.39C541.191 304.73 540.811 305.03 540.411 305.29C542.771 306.41 543.971 308.18 544.011 310.6ZM533.211 310.78C533.211 311.14 533.271 311.52 533.391 311.92C533.531 312.3 533.761 312.66 534.081 313C534.401 313.32 534.811 313.59 535.311 313.81C535.811 314.03 536.441 314.14 537.201 314.14C537.881 314.14 538.471 314.04 538.971 313.84C539.491 313.64 539.911 313.39 540.231 313.09C540.551 312.77 540.791 312.41 540.951 312.01C541.111 311.61 541.191 311.2 541.191 310.78C541.191 310.14 541.071 309.58 540.831 309.1C540.591 308.62 540.241 308.2 539.781 307.84C539.341 307.48 538.801 307.18 538.161 306.94C537.541 306.68 536.831 306.46 536.031 306.28C535.131 306.78 534.431 307.4 533.931 308.14C533.451 308.88 533.211 309.76 533.211 310.78ZM540.711 300.13C540.711 299.83 540.641 299.5 540.501 299.14C540.381 298.78 540.181 298.45 539.901 298.15C539.621 297.83 539.261 297.57 538.821 297.37C538.381 297.15 537.841 297.04 537.201 297.04C536.561 297.04 536.011 297.14 535.551 297.34C535.111 297.54 534.751 297.8 534.471 298.12C534.191 298.42 533.981 298.76 533.841 299.14C533.721 299.5 533.661 299.86 533.661 300.22C533.661 300.66 533.741 301.1 533.901 301.54C534.061 301.98 534.311 302.39 534.651 302.77C534.991 303.15 535.431 303.49 535.971 303.79C536.531 304.09 537.191 304.33 537.951 304.51C538.791 304.01 539.461 303.43 539.961 302.77C540.461 302.09 540.711 301.21 540.711 300.13ZM574.925 305.59C574.925 307.39 574.645 308.96 574.085 310.3C573.525 311.62 572.735 312.72 571.715 313.6C570.695 314.46 569.475 315.11 568.055 315.55C566.635 315.97 565.075 316.18 563.375 316.18C562.535 316.18 561.605 316.14 560.585 316.06C559.585 316 558.675 315.87 557.855 315.67V295.51C558.675 295.31 559.585 295.18 560.585 295.12C561.605 295.04 562.535 295 563.375 295C565.075 295 566.635 295.22 568.055 295.66C569.475 296.08 570.695 296.73 571.715 297.61C572.735 298.47 573.525 299.57 574.085 300.91C574.645 302.23 574.925 303.79 574.925 305.59ZM563.615 313.63C566.375 313.63 568.435 312.93 569.795 311.53C571.155 310.11 571.835 308.13 571.835 305.59C571.835 303.05 571.155 301.08 569.795 299.68C568.435 298.26 566.375 297.55 563.615 297.55C562.795 297.55 562.155 297.56 561.695 297.58C561.255 297.6 560.945 297.62 560.765 297.64V313.54C560.945 313.56 561.255 313.58 561.695 313.6C562.155 313.62 562.795 313.63 563.615 313.63ZM602.175 316C601.835 315.1 601.515 314.22 601.215 313.36C600.915 312.48 600.605 311.59 600.285 310.69H590.865L588.975 316H585.945C586.745 313.8 587.495 311.77 588.195 309.91C588.895 308.03 589.575 306.25 590.235 304.57C590.915 302.89 591.585 301.29 592.245 299.77C592.905 298.23 593.595 296.71 594.315 295.21H596.985C597.705 296.71 598.395 298.23 599.055 299.77C599.715 301.29 600.375 302.89 601.035 304.57C601.715 306.25 602.405 308.03 603.105 309.91C603.805 311.77 604.555 313.8 605.355 316H602.175ZM599.445 308.29C598.805 306.55 598.165 304.87 597.525 303.25C596.905 301.61 596.255 300.04 595.575 298.54C594.875 300.04 594.205 301.61 593.565 303.25C592.945 304.87 592.325 306.55 591.705 308.29H599.445ZM630.228 303.52C630.228 307.64 629.198 310.76 627.138 312.88C625.098 314.98 622.058 316.04 618.018 316.06L617.928 313.72C619.188 313.72 620.318 313.6 621.318 313.36C622.338 313.12 623.228 312.74 623.988 312.22C624.748 311.68 625.378 310.99 625.878 310.15C626.398 309.31 626.778 308.28 627.018 307.06C626.498 307.3 625.908 307.5 625.248 307.66C624.588 307.8 623.908 307.87 623.208 307.87C622.028 307.87 621.028 307.7 620.208 307.36C619.388 307 618.718 306.53 618.198 305.95C617.678 305.35 617.298 304.67 617.058 303.91C616.838 303.13 616.728 302.32 616.728 301.48C616.728 300.74 616.858 299.97 617.118 299.17C617.378 298.37 617.768 297.64 618.288 296.98C618.828 296.32 619.508 295.78 620.328 295.36C621.148 294.94 622.118 294.73 623.238 294.73C624.378 294.73 625.378 294.93 626.238 295.33C627.118 295.73 627.848 296.31 628.428 297.07C629.028 297.83 629.478 298.76 629.778 299.86C630.078 300.94 630.228 302.16 630.228 303.52ZM623.508 305.59C624.208 305.59 624.868 305.53 625.488 305.41C626.108 305.27 626.708 305.07 627.288 304.81C627.308 304.59 627.318 304.38 627.318 304.18C627.318 303.96 627.318 303.74 627.318 303.52C627.318 302.66 627.258 301.84 627.138 301.06C627.018 300.26 626.798 299.57 626.478 298.99C626.178 298.39 625.768 297.92 625.248 297.58C624.728 297.22 624.068 297.04 623.268 297.04C622.608 297.04 622.048 297.18 621.588 297.46C621.128 297.74 620.748 298.1 620.448 298.54C620.148 298.96 619.928 299.43 619.788 299.95C619.668 300.45 619.608 300.94 619.608 301.42C619.608 302.78 619.928 303.82 620.568 304.54C621.228 305.24 622.208 305.59 623.508 305.59ZM653.251 316.45C651.791 316.45 650.461 316.21 649.261 315.73C648.061 315.25 647.031 314.55 646.171 313.63C645.311 312.71 644.641 311.58 644.161 310.24C643.701 308.88 643.471 307.33 643.471 305.59C643.471 303.85 643.731 302.31 644.251 300.97C644.791 299.61 645.511 298.47 646.411 297.55C647.311 296.63 648.361 295.93 649.561 295.45C650.761 294.97 652.041 294.73 653.401 294.73C654.261 294.73 655.031 294.79 655.711 294.91C656.411 295.03 657.011 295.17 657.511 295.33C658.031 295.49 658.451 295.65 658.771 295.81C659.091 295.97 659.311 296.09 659.431 296.17L658.591 298.57C658.411 298.45 658.151 298.32 657.811 298.18C657.471 298.04 657.081 297.9 656.641 297.76C656.221 297.62 655.751 297.51 655.231 297.43C654.731 297.33 654.221 297.28 653.701 297.28C652.601 297.28 651.611 297.47 650.731 297.85C649.851 298.23 649.101 298.78 648.481 299.5C647.861 300.22 647.381 301.1 647.041 302.14C646.721 303.16 646.561 304.31 646.561 305.59C646.561 306.83 646.701 307.96 646.981 308.98C647.281 310 647.721 310.88 648.301 311.62C648.881 312.34 649.601 312.9 650.461 313.3C651.341 313.7 652.361 313.9 653.521 313.9C654.861 313.9 655.971 313.76 656.851 313.48C657.731 313.2 658.391 312.95 658.831 312.73L659.581 315.13C659.441 315.23 659.191 315.36 658.831 315.52C658.471 315.66 658.021 315.8 657.481 315.94C656.941 316.08 656.311 316.2 655.591 316.3C654.871 316.4 654.091 316.45 653.251 316.45ZM671.135 308.8C671.515 307.92 672.035 306.9 672.695 305.74C673.355 304.56 674.095 303.35 674.915 302.11C675.755 300.87 676.645 299.65 677.585 298.45C678.545 297.25 679.505 296.17 680.465 295.21H683.135V308.41H685.595V310.69H683.135V316H680.435V310.69H671.135V308.8ZM680.435 298.51C679.835 299.15 679.225 299.87 678.605 300.67C678.005 301.45 677.415 302.27 676.835 303.13C676.255 303.99 675.705 304.87 675.185 305.77C674.685 306.67 674.235 307.55 673.835 308.41H680.435V298.51Z" fill="#8DA9C4"/>
<rect x="967" width="200" height="200" rx="20" fill="#1E5BA1"/>
<path d="M994.505 245.12C994.305 244.64 994.035 244.03 993.695 243.29C993.375 242.55 993.025 241.75 992.645 240.89C992.265 240.03 991.855 239.15 991.415 238.25C990.995 237.33 990.595 236.47 990.215 235.67C989.835 234.85 989.475 234.12 989.135 233.48C988.815 232.84 988.555 232.35 988.355 232.01C988.135 234.37 987.955 236.93 987.815 239.69C987.675 242.43 987.555 245.2 987.455 248H984.605C984.685 246.2 984.775 244.39 984.875 242.57C984.975 240.73 985.085 238.93 985.205 237.17C985.345 235.39 985.485 233.66 985.625 231.98C985.785 230.3 985.955 228.71 986.135 227.21H988.685C989.225 228.09 989.805 229.13 990.425 230.33C991.045 231.53 991.665 232.79 992.285 234.11C992.905 235.41 993.505 236.72 994.085 238.04C994.665 239.34 995.195 240.53 995.675 241.61C996.155 240.53 996.685 239.34 997.265 238.04C997.845 236.72 998.445 235.41 999.065 234.11C999.685 232.79 1000.3 231.53 1000.92 230.33C1001.54 229.13 1002.12 228.09 1002.66 227.21H1005.21C1005.89 233.91 1006.4 240.84 1006.74 248H1003.89C1003.79 245.2 1003.67 242.43 1003.53 239.69C1003.39 236.93 1003.21 234.37 1002.99 232.01C1002.79 232.35 1002.52 232.84 1002.18 233.48C1001.86 234.12 1001.51 234.85 1001.13 235.67C1000.75 236.47 1000.34 237.33 999.905 238.25C999.485 239.15 999.085 240.03 998.705 240.89C998.325 241.75 997.965 242.55 997.625 243.29C997.305 244.03 997.045 244.64 996.845 245.12H994.505ZM1019.86 240.23C1019.86 238.85 1020.06 237.65 1020.46 236.63C1020.86 235.59 1021.39 234.73 1022.05 234.05C1022.71 233.37 1023.47 232.86 1024.33 232.52C1025.19 232.18 1026.07 232.01 1026.97 232.01C1029.07 232.01 1030.68 232.67 1031.8 233.99C1032.92 235.29 1033.48 237.28 1033.48 239.96C1033.48 240.08 1033.48 240.24 1033.48 240.44C1033.48 240.62 1033.47 240.79 1033.45 240.95H1022.77C1022.89 242.57 1023.36 243.8 1024.18 244.64C1025 245.48 1026.28 245.9 1028.02 245.9C1029 245.9 1029.82 245.82 1030.48 245.66C1031.16 245.48 1031.67 245.31 1032.01 245.15L1032.4 247.49C1032.06 247.67 1031.46 247.86 1030.6 248.06C1029.76 248.26 1028.8 248.36 1027.72 248.36C1026.36 248.36 1025.18 248.16 1024.18 247.76C1023.2 247.34 1022.39 246.77 1021.75 246.05C1021.11 245.33 1020.63 244.48 1020.31 243.5C1020.01 242.5 1019.86 241.41 1019.86 240.23ZM1030.57 238.7C1030.59 237.44 1030.27 236.41 1029.61 235.61C1028.97 234.79 1028.08 234.38 1026.94 234.38C1026.3 234.38 1025.73 234.51 1025.23 234.77C1024.75 235.01 1024.34 235.33 1024 235.73C1023.66 236.13 1023.39 236.59 1023.19 237.11C1023.01 237.63 1022.89 238.16 1022.83 238.7H1030.57ZM1057.17 235.7C1056.83 235.42 1056.34 235.15 1055.7 234.89C1055.06 234.63 1054.36 234.5 1053.6 234.5C1052.8 234.5 1052.11 234.65 1051.53 234.95C1050.97 235.23 1050.51 235.63 1050.15 236.15C1049.79 236.65 1049.53 237.25 1049.37 237.95C1049.21 238.65 1049.13 239.4 1049.13 240.2C1049.13 242.02 1049.58 243.43 1050.48 244.43C1051.38 245.41 1052.58 245.9 1054.08 245.9C1054.84 245.9 1055.47 245.87 1055.97 245.81C1056.49 245.73 1056.89 245.65 1057.17 245.57V235.7ZM1057.17 225.2L1059.96 224.72V247.55C1059.32 247.73 1058.5 247.91 1057.5 248.09C1056.5 248.27 1055.35 248.36 1054.05 248.36C1052.85 248.36 1051.77 248.17 1050.81 247.79C1049.85 247.41 1049.03 246.87 1048.35 246.17C1047.67 245.47 1047.14 244.62 1046.76 243.62C1046.4 242.6 1046.22 241.46 1046.22 240.2C1046.22 239 1046.37 237.9 1046.67 236.9C1046.99 235.9 1047.45 235.04 1048.05 234.32C1048.65 233.6 1049.38 233.04 1050.24 232.64C1051.12 232.24 1052.12 232.04 1053.24 232.04C1054.14 232.04 1054.93 232.16 1055.61 232.4C1056.31 232.64 1056.83 232.87 1057.17 233.09V225.2ZM1077.14 248H1074.35V232.4H1077.14V248ZM1075.73 229.58C1075.23 229.58 1074.8 229.42 1074.44 229.1C1074.1 228.76 1073.93 228.31 1073.93 227.75C1073.93 227.19 1074.1 226.75 1074.44 226.43C1074.8 226.09 1075.23 225.92 1075.73 225.92C1076.23 225.92 1076.65 226.09 1076.99 226.43C1077.35 226.75 1077.53 227.19 1077.53 227.75C1077.53 228.31 1077.35 228.76 1076.99 229.1C1076.65 229.42 1076.23 229.58 1075.73 229.58ZM1103.96 247.55C1103.32 247.71 1102.47 247.88 1101.41 248.06C1100.37 248.24 1099.16 248.33 1097.78 248.33C1096.58 248.33 1095.57 248.16 1094.75 247.82C1093.93 247.46 1093.27 246.96 1092.77 246.32C1092.27 245.68 1091.91 244.93 1091.69 244.07C1091.47 243.19 1091.36 242.22 1091.36 241.16V232.4H1094.15V240.56C1094.15 242.46 1094.45 243.82 1095.05 244.64C1095.65 245.46 1096.66 245.87 1098.08 245.87C1098.38 245.87 1098.69 245.86 1099.01 245.84C1099.33 245.82 1099.63 245.8 1099.91 245.78C1100.19 245.74 1100.44 245.71 1100.66 245.69C1100.9 245.65 1101.07 245.61 1101.17 245.57V232.4H1103.96V247.55ZM1118.37 232.85C1119.01 232.69 1119.85 232.52 1120.89 232.34C1121.95 232.16 1123.17 232.07 1124.55 232.07C1125.55 232.07 1126.39 232.21 1127.07 232.49C1127.75 232.75 1128.32 233.14 1128.78 233.66C1128.92 233.56 1129.14 233.42 1129.44 233.24C1129.74 233.06 1130.11 232.89 1130.55 232.73C1130.99 232.55 1131.48 232.4 1132.02 232.28C1132.56 232.14 1133.14 232.07 1133.76 232.07C1134.96 232.07 1135.94 232.25 1136.7 232.61C1137.46 232.95 1138.05 233.44 1138.47 234.08C1138.91 234.72 1139.2 235.48 1139.34 236.36C1139.5 237.24 1139.58 238.2 1139.58 239.24V248H1136.79V239.84C1136.79 238.92 1136.74 238.13 1136.64 237.47C1136.56 236.81 1136.39 236.26 1136.13 235.82C1135.89 235.38 1135.55 235.06 1135.11 234.86C1134.69 234.64 1134.14 234.53 1133.46 234.53C1132.52 234.53 1131.74 234.66 1131.12 234.92C1130.52 235.16 1130.11 235.38 1129.89 235.58C1130.05 236.1 1130.17 236.67 1130.25 237.29C1130.33 237.91 1130.37 238.56 1130.37 239.24V248H1127.58V239.84C1127.58 238.92 1127.53 238.13 1127.43 237.47C1127.33 236.81 1127.15 236.26 1126.89 235.82C1126.65 235.38 1126.31 235.06 1125.87 234.86C1125.45 234.64 1124.91 234.53 1124.25 234.53C1123.97 234.53 1123.67 234.54 1123.35 234.56C1123.03 234.58 1122.72 234.61 1122.42 234.65C1122.14 234.67 1121.88 234.7 1121.64 234.74C1121.4 234.78 1121.24 234.81 1121.16 234.83V248H1118.37V232.85ZM1030.06 282.18C1029.64 282.18 1029.18 282.17 1028.68 282.15C1028.2 282.13 1027.71 282.1 1027.21 282.06C1026.73 282.02 1026.25 281.97 1025.77 281.91C1025.29 281.85 1024.85 281.77 1024.45 281.67V261.51C1024.85 261.41 1025.29 261.33 1025.77 261.27C1026.25 261.21 1026.73 261.16 1027.21 261.12C1027.71 261.08 1028.2 261.05 1028.68 261.03C1029.16 261.01 1029.61 261 1030.03 261C1031.23 261 1032.35 261.09 1033.39 261.27C1034.45 261.45 1035.36 261.76 1036.12 262.2C1036.9 262.62 1037.51 263.18 1037.95 263.88C1038.39 264.58 1038.61 265.44 1038.61 266.46C1038.61 267.6 1038.34 268.54 1037.8 269.28C1037.26 270 1036.54 270.54 1035.64 270.9C1036.86 271.26 1037.83 271.83 1038.55 272.61C1039.27 273.39 1039.63 274.49 1039.63 275.91C1039.63 277.99 1038.86 279.56 1037.32 280.62C1035.8 281.66 1033.38 282.18 1030.06 282.18ZM1027.33 272.31V279.63C1027.55 279.65 1027.81 279.67 1028.11 279.69C1028.37 279.71 1028.67 279.73 1029.01 279.75C1029.37 279.75 1029.78 279.75 1030.24 279.75C1031.1 279.75 1031.91 279.7 1032.67 279.6C1033.45 279.48 1034.13 279.28 1034.71 279C1035.29 278.72 1035.75 278.33 1036.09 277.83C1036.45 277.33 1036.63 276.7 1036.63 275.94C1036.63 275.26 1036.5 274.69 1036.24 274.23C1035.98 273.75 1035.6 273.37 1035.1 273.09C1034.62 272.81 1034.04 272.61 1033.36 272.49C1032.68 272.37 1031.92 272.31 1031.08 272.31H1027.33ZM1027.33 269.97H1030.39C1031.11 269.97 1031.79 269.92 1032.43 269.82C1033.07 269.72 1033.62 269.54 1034.08 269.28C1034.56 269.02 1034.93 268.68 1035.19 268.26C1035.47 267.84 1035.61 267.31 1035.61 266.67C1035.61 266.07 1035.47 265.57 1035.19 265.17C1034.91 264.75 1034.52 264.42 1034.02 264.18C1033.54 263.92 1032.97 263.73 1032.31 263.61C1031.65 263.49 1030.95 263.43 1030.21 263.43C1029.47 263.43 1028.89 263.44 1028.47 263.46C1028.05 263.48 1027.67 263.51 1027.33 263.55V269.97ZM1057.82 282.3C1056.1 282.26 1054.88 281.89 1054.16 281.19C1053.44 280.49 1053.08 279.4 1053.08 277.92V259.2L1055.87 258.72V277.47C1055.87 277.93 1055.91 278.31 1055.99 278.61C1056.07 278.91 1056.2 279.15 1056.38 279.33C1056.56 279.51 1056.8 279.65 1057.1 279.75C1057.4 279.83 1057.77 279.9 1058.21 279.96L1057.82 282.3ZM1083.37 281.55C1082.73 281.71 1081.88 281.88 1080.82 282.06C1079.78 282.24 1078.57 282.33 1077.19 282.33C1075.99 282.33 1074.98 282.16 1074.16 281.82C1073.34 281.46 1072.68 280.96 1072.18 280.32C1071.68 279.68 1071.32 278.93 1071.1 278.07C1070.88 277.19 1070.77 276.22 1070.77 275.16V266.4H1073.56V274.56C1073.56 276.46 1073.86 277.82 1074.46 278.64C1075.06 279.46 1076.07 279.87 1077.49 279.87C1077.79 279.87 1078.1 279.86 1078.42 279.84C1078.74 279.82 1079.04 279.8 1079.32 279.78C1079.6 279.74 1079.85 279.71 1080.07 279.69C1080.31 279.65 1080.48 279.61 1080.58 279.57V266.4H1083.37V281.55ZM1096.9 274.23C1096.9 272.85 1097.1 271.65 1097.5 270.63C1097.9 269.59 1098.43 268.73 1099.09 268.05C1099.75 267.37 1100.51 266.86 1101.37 266.52C1102.23 266.18 1103.11 266.01 1104.01 266.01C1106.11 266.01 1107.72 266.67 1108.84 267.99C1109.96 269.29 1110.52 271.28 1110.52 273.96C1110.52 274.08 1110.52 274.24 1110.52 274.44C1110.52 274.62 1110.51 274.79 1110.49 274.95H1099.81C1099.93 276.57 1100.4 277.8 1101.22 278.64C1102.04 279.48 1103.32 279.9 1105.06 279.9C1106.04 279.9 1106.86 279.82 1107.52 279.66C1108.2 279.48 1108.71 279.31 1109.05 279.15L1109.44 281.49C1109.1 281.67 1108.5 281.86 1107.64 282.06C1106.8 282.26 1105.84 282.36 1104.76 282.36C1103.4 282.36 1102.22 282.16 1101.22 281.76C1100.24 281.34 1099.43 280.77 1098.79 280.05C1098.15 279.33 1097.67 278.48 1097.35 277.5C1097.05 276.5 1096.9 275.41 1096.9 274.23ZM1107.61 272.7C1107.63 271.44 1107.31 270.41 1106.65 269.61C1106.01 268.79 1105.12 268.38 1103.98 268.38C1103.34 268.38 1102.77 268.51 1102.27 268.77C1101.79 269.01 1101.38 269.33 1101.04 269.73C1100.7 270.13 1100.43 270.59 1100.23 271.11C1100.05 271.63 1099.93 272.16 1099.87 272.7H1107.61ZM983.16 300.7H988.02L989.07 295.21H991.59L990.54 300.7H993.18V302.92H990.09L989.07 308.29H993.18V310.51H988.65L987.6 316H985.08L986.13 310.51H981.27L980.22 316H977.7L978.75 310.51H976.11V308.29H979.17L980.19 302.92H976.11V300.7H980.64L981.69 295.21H984.21L983.16 300.7ZM981.69 308.29H986.55L987.6 302.92H982.74L981.69 308.29ZM1007.04 299.5C1008.18 299.06 1009.29 298.5 1010.37 297.82C1011.45 297.12 1012.44 296.25 1013.34 295.21H1015.32V316H1012.53V299.08C1012.29 299.3 1011.99 299.53 1011.63 299.77C1011.29 300.01 1010.91 300.24 1010.49 300.46C1010.09 300.68 1009.66 300.89 1009.2 301.09C1008.76 301.29 1008.33 301.46 1007.91 301.6L1007.04 299.5ZM1033.36 316V295.21H1046.05V297.7H1036.27V303.88H1044.97V306.31H1036.27V313.51H1046.8V316H1033.36ZM1063.49 303.22C1066.51 303.34 1068.72 304 1070.12 305.2C1071.54 306.4 1072.25 308.03 1072.25 310.09C1072.25 311.01 1072.09 311.86 1071.77 312.64C1071.47 313.42 1071 314.09 1070.36 314.65C1069.74 315.21 1068.95 315.65 1067.99 315.97C1067.03 316.29 1065.89 316.45 1064.57 316.45C1064.05 316.45 1063.52 316.41 1062.98 316.33C1062.44 316.25 1061.94 316.15 1061.48 316.03C1061.02 315.91 1060.61 315.79 1060.25 315.67C1059.89 315.55 1059.63 315.45 1059.47 315.37L1060.01 312.94C1060.35 313.1 1060.9 313.31 1061.66 313.57C1062.44 313.83 1063.39 313.96 1064.51 313.96C1065.41 313.96 1066.16 313.86 1066.76 313.66C1067.38 313.46 1067.88 313.19 1068.26 312.85C1068.64 312.51 1068.91 312.12 1069.07 311.68C1069.25 311.22 1069.34 310.74 1069.34 310.24C1069.34 309.48 1069.21 308.81 1068.95 308.23C1068.69 307.63 1068.23 307.13 1067.57 306.73C1066.91 306.33 1066.03 306.03 1064.93 305.83C1063.83 305.61 1062.44 305.5 1060.76 305.5C1060.88 304.52 1060.97 303.6 1061.03 302.74C1061.11 301.88 1061.18 301.04 1061.24 300.22C1061.3 299.4 1061.35 298.59 1061.39 297.79C1061.43 296.97 1061.47 296.11 1061.51 295.21H1071.53V297.58H1063.94C1063.92 297.88 1063.89 298.29 1063.85 298.81C1063.81 299.31 1063.77 299.84 1063.73 300.4C1063.69 300.94 1063.65 301.47 1063.61 301.99C1063.57 302.51 1063.53 302.92 1063.49 303.22ZM1092.25 316.18C1091.83 316.18 1091.37 316.17 1090.87 316.15C1090.39 316.13 1089.9 316.1 1089.4 316.06C1088.92 316.02 1088.44 315.97 1087.96 315.91C1087.48 315.85 1087.04 315.77 1086.64 315.67V295.51C1087.04 295.41 1087.48 295.33 1087.96 295.27C1088.44 295.21 1088.92 295.16 1089.4 295.12C1089.9 295.08 1090.39 295.05 1090.87 295.03C1091.35 295.01 1091.8 295 1092.22 295C1093.42 295 1094.54 295.09 1095.58 295.27C1096.64 295.45 1097.55 295.76 1098.31 296.2C1099.09 296.62 1099.7 297.18 1100.14 297.88C1100.58 298.58 1100.8 299.44 1100.8 300.46C1100.8 301.6 1100.53 302.54 1099.99 303.28C1099.45 304 1098.73 304.54 1097.83 304.9C1099.05 305.26 1100.02 305.83 1100.74 306.61C1101.46 307.39 1101.82 308.49 1101.82 309.91C1101.82 311.99 1101.05 313.56 1099.51 314.62C1097.99 315.66 1095.57 316.18 1092.25 316.18ZM1089.52 306.31V313.63C1089.74 313.65 1090 313.67 1090.3 313.69C1090.56 313.71 1090.86 313.73 1091.2 313.75C1091.56 313.75 1091.97 313.75 1092.43 313.75C1093.29 313.75 1094.1 313.7 1094.86 313.6C1095.64 313.48 1096.32 313.28 1096.9 313C1097.48 312.72 1097.94 312.33 1098.28 311.83C1098.64 311.33 1098.82 310.7 1098.82 309.94C1098.82 309.26 1098.69 308.69 1098.43 308.23C1098.17 307.75 1097.79 307.37 1097.29 307.09C1096.81 306.81 1096.23 306.61 1095.55 306.49C1094.87 306.37 1094.11 306.31 1093.27 306.31H1089.52ZM1089.52 303.97H1092.58C1093.3 303.97 1093.98 303.92 1094.62 303.82C1095.26 303.72 1095.81 303.54 1096.27 303.28C1096.75 303.02 1097.12 302.68 1097.38 302.26C1097.66 301.84 1097.8 301.31 1097.8 300.67C1097.8 300.07 1097.66 299.57 1097.38 299.17C1097.1 298.75 1096.71 298.42 1096.21 298.18C1095.73 297.92 1095.16 297.73 1094.5 297.61C1093.84 297.49 1093.14 297.43 1092.4 297.43C1091.66 297.43 1091.08 297.44 1090.66 297.46C1090.24 297.48 1089.86 297.51 1089.52 297.55V303.97ZM1129.4 316C1129.06 315.1 1128.74 314.22 1128.44 313.36C1128.14 312.48 1127.83 311.59 1127.51 310.69H1118.09L1116.2 316H1113.17C1113.97 313.8 1114.72 311.77 1115.42 309.91C1116.12 308.03 1116.8 306.25 1117.46 304.57C1118.14 302.89 1118.81 301.29 1119.47 299.77C1120.13 298.23 1120.82 296.71 1121.54 295.21H1124.21C1124.93 296.71 1125.62 298.23 1126.28 299.77C1126.94 301.29 1127.6 302.89 1128.26 304.57C1128.94 306.25 1129.63 308.03 1130.33 309.91C1131.03 311.77 1131.78 313.8 1132.58 316H1129.4ZM1126.67 308.29C1126.03 306.55 1125.39 304.87 1124.75 303.25C1124.13 301.61 1123.48 300.04 1122.8 298.54C1122.1 300.04 1121.43 301.61 1120.79 303.25C1120.17 304.87 1119.55 306.55 1118.93 308.29H1126.67ZM1145.22 299.5C1146.36 299.06 1147.47 298.5 1148.55 297.82C1149.63 297.12 1150.62 296.25 1151.52 295.21H1153.5V316H1150.71V299.08C1150.47 299.3 1150.17 299.53 1149.81 299.77C1149.47 300.01 1149.09 300.24 1148.67 300.46C1148.27 300.68 1147.84 300.89 1147.38 301.09C1146.94 301.29 1146.51 301.46 1146.09 301.6L1145.22 299.5Z" fill="#1E5BA1"/>
<rect x="254.5" y="219.575" width="200" height="200" rx="20" fill="#13315C"/>
<path d="M269.15 457.166C269.15 458.966 268.87 460.536 268.31 461.876C267.75 463.196 266.96 464.296 265.94 465.176C264.92 466.036 263.7 466.686 262.28 467.126C260.86 467.546 259.3 467.756 257.6 467.756C256.76 467.756 255.83 467.716 254.81 467.636C253.81 467.576 252.9 467.446 252.08 467.246V447.086C252.9 446.886 253.81 446.756 254.81 446.696C255.83 446.616 256.76 446.576 257.6 446.576C259.3 446.576 260.86 446.796 262.28 447.236C263.7 447.656 264.92 448.306 265.94 449.186C266.96 450.046 267.75 451.146 268.31 452.486C268.87 453.806 269.15 455.366 269.15 457.166ZM257.84 465.206C260.6 465.206 262.66 464.506 264.02 463.106C265.38 461.686 266.06 459.706 266.06 457.166C266.06 454.626 265.38 452.656 264.02 451.256C262.66 449.836 260.6 449.126 257.84 449.126C257.02 449.126 256.38 449.136 255.92 449.156C255.48 449.176 255.17 449.196 254.99 449.216V465.116C255.17 465.136 255.48 465.156 255.92 465.176C256.38 465.196 257.02 465.206 257.84 465.206ZM287.757 465.566C288.417 465.566 288.997 465.556 289.497 465.536C290.017 465.496 290.447 465.436 290.787 465.356V460.706C290.587 460.606 290.257 460.526 289.797 460.466C289.357 460.386 288.817 460.346 288.177 460.346C287.757 460.346 287.307 460.376 286.827 460.436C286.367 460.496 285.937 460.626 285.537 460.826C285.157 461.006 284.837 461.266 284.577 461.606C284.317 461.926 284.187 462.356 284.187 462.896C284.187 463.896 284.507 464.596 285.147 464.996C285.787 465.376 286.657 465.566 287.757 465.566ZM287.517 451.586C288.637 451.586 289.577 451.736 290.337 452.036C291.117 452.316 291.737 452.726 292.197 453.266C292.677 453.786 293.017 454.416 293.217 455.156C293.417 455.876 293.517 456.676 293.517 457.556V467.306C293.277 467.346 292.937 467.406 292.497 467.486C292.077 467.546 291.597 467.606 291.057 467.666C290.517 467.726 289.927 467.776 289.287 467.816C288.667 467.876 288.047 467.906 287.427 467.906C286.547 467.906 285.737 467.816 284.997 467.636C284.257 467.456 283.617 467.176 283.077 466.796C282.537 466.396 282.117 465.876 281.817 465.236C281.517 464.596 281.367 463.826 281.367 462.926C281.367 462.066 281.537 461.326 281.877 460.706C282.237 460.086 282.717 459.586 283.317 459.206C283.917 458.826 284.617 458.546 285.417 458.366C286.217 458.186 287.057 458.096 287.937 458.096C288.217 458.096 288.507 458.116 288.807 458.156C289.107 458.176 289.387 458.216 289.647 458.276C289.927 458.316 290.167 458.356 290.367 458.396C290.567 458.436 290.707 458.466 290.787 458.486V457.706C290.787 457.246 290.737 456.796 290.637 456.356C290.537 455.896 290.357 455.496 290.097 455.156C289.837 454.796 289.477 454.516 289.017 454.316C288.577 454.096 287.997 453.986 287.277 453.986C286.357 453.986 285.547 454.056 284.847 454.196C284.167 454.316 283.657 454.446 283.317 454.586L282.987 452.276C283.347 452.116 283.947 451.966 284.787 451.826C285.627 451.666 286.537 451.586 287.517 451.586ZM313.51 451.646C313.75 451.646 314.02 451.666 314.32 451.706C314.64 451.726 314.95 451.766 315.25 451.826C315.55 451.866 315.82 451.916 316.06 451.976C316.32 452.016 316.51 452.056 316.63 452.096L316.15 454.526C315.93 454.446 315.56 454.356 315.04 454.256C314.54 454.136 313.89 454.076 313.09 454.076C312.57 454.076 312.05 454.136 311.53 454.256C311.03 454.356 310.7 454.426 310.54 454.466V467.576H307.75V452.636C308.41 452.396 309.23 452.176 310.21 451.976C311.19 451.756 312.29 451.646 313.51 451.646ZM334.563 458.996C335.163 459.456 335.793 460.026 336.453 460.706C337.133 461.386 337.793 462.126 338.433 462.926C339.093 463.706 339.713 464.506 340.293 465.326C340.873 466.126 341.363 466.876 341.763 467.576H338.493C338.073 466.876 337.583 466.166 337.023 465.446C336.483 464.706 335.913 464.006 335.313 463.346C334.713 462.666 334.103 462.046 333.483 461.486C332.863 460.926 332.273 460.456 331.713 460.076V467.576H328.923V444.776L331.713 444.296V458.516C332.193 458.036 332.723 457.506 333.303 456.926C333.883 456.346 334.453 455.756 335.013 455.156C335.573 454.556 336.103 453.986 336.603 453.446C337.103 452.886 337.533 452.396 337.893 451.976H341.163C340.703 452.476 340.203 453.026 339.663 453.626C339.123 454.226 338.563 454.836 337.983 455.456C337.403 456.056 336.813 456.666 336.213 457.286C335.633 457.886 335.083 458.456 334.563 458.996ZM376.53 467.756C376.11 467.756 375.65 467.746 375.15 467.726C374.67 467.706 374.18 467.676 373.68 467.636C373.2 467.596 372.72 467.546 372.24 467.486C371.76 467.426 371.32 467.346 370.92 467.246V447.086C371.32 446.986 371.76 446.906 372.24 446.846C372.72 446.786 373.2 446.736 373.68 446.696C374.18 446.656 374.67 446.626 375.15 446.606C375.63 446.586 376.08 446.576 376.5 446.576C377.7 446.576 378.82 446.666 379.86 446.846C380.92 447.026 381.83 447.336 382.59 447.776C383.37 448.196 383.98 448.756 384.42 449.456C384.86 450.156 385.08 451.016 385.08 452.036C385.08 453.176 384.81 454.116 384.27 454.856C383.73 455.576 383.01 456.116 382.11 456.476C383.33 456.836 384.3 457.406 385.02 458.186C385.74 458.966 386.1 460.066 386.1 461.486C386.1 463.566 385.33 465.136 383.79 466.196C382.27 467.236 379.85 467.756 376.53 467.756ZM373.8 457.886V465.206C374.02 465.226 374.28 465.246 374.58 465.266C374.84 465.286 375.14 465.306 375.48 465.326C375.84 465.326 376.25 465.326 376.71 465.326C377.57 465.326 378.38 465.276 379.14 465.176C379.92 465.056 380.6 464.856 381.18 464.576C381.76 464.296 382.22 463.906 382.56 463.406C382.92 462.906 383.1 462.276 383.1 461.516C383.1 460.836 382.97 460.266 382.71 459.806C382.45 459.326 382.07 458.946 381.57 458.666C381.09 458.386 380.51 458.186 379.83 458.066C379.15 457.946 378.39 457.886 377.55 457.886H373.8ZM373.8 455.546H376.86C377.58 455.546 378.26 455.496 378.9 455.396C379.54 455.296 380.09 455.116 380.55 454.856C381.03 454.596 381.4 454.256 381.66 453.836C381.94 453.416 382.08 452.886 382.08 452.246C382.08 451.646 381.94 451.146 381.66 450.746C381.38 450.326 380.99 449.996 380.49 449.756C380.01 449.496 379.44 449.306 378.78 449.186C378.12 449.066 377.42 449.006 376.68 449.006C375.94 449.006 375.36 449.016 374.94 449.036C374.52 449.056 374.14 449.086 373.8 449.126V455.546ZM404.297 467.876C402.577 467.836 401.357 467.466 400.637 466.766C399.917 466.066 399.557 464.976 399.557 463.496V444.776L402.347 444.296V463.046C402.347 463.506 402.387 463.886 402.467 464.186C402.547 464.486 402.677 464.726 402.857 464.906C403.037 465.086 403.277 465.226 403.577 465.326C403.877 465.406 404.247 465.476 404.687 465.536L404.297 467.876ZM429.84 467.126C429.2 467.286 428.35 467.456 427.29 467.636C426.25 467.816 425.04 467.906 423.66 467.906C422.46 467.906 421.45 467.736 420.63 467.396C419.81 467.036 419.15 466.536 418.65 465.896C418.15 465.256 417.79 464.506 417.57 463.646C417.35 462.766 417.24 461.796 417.24 460.736V451.976H420.03V460.136C420.03 462.036 420.33 463.396 420.93 464.216C421.53 465.036 422.54 465.446 423.96 465.446C424.26 465.446 424.57 465.436 424.89 465.416C425.21 465.396 425.51 465.376 425.79 465.356C426.07 465.316 426.32 465.286 426.54 465.266C426.78 465.226 426.95 465.186 427.05 465.146V451.976H429.84V467.126ZM443.377 459.806C443.377 458.426 443.577 457.226 443.977 456.206C444.377 455.166 444.907 454.306 445.567 453.626C446.227 452.946 446.987 452.436 447.847 452.096C448.707 451.756 449.587 451.586 450.487 451.586C452.587 451.586 454.197 452.246 455.317 453.566C456.437 454.866 456.997 456.856 456.997 459.536C456.997 459.656 456.997 459.816 456.997 460.016C456.997 460.196 456.987 460.366 456.967 460.526H446.287C446.407 462.146 446.877 463.376 447.697 464.216C448.517 465.056 449.797 465.476 451.537 465.476C452.517 465.476 453.337 465.396 453.997 465.236C454.677 465.056 455.187 464.886 455.527 464.726L455.917 467.066C455.577 467.246 454.977 467.436 454.117 467.636C453.277 467.836 452.317 467.936 451.237 467.936C449.877 467.936 448.697 467.736 447.697 467.336C446.717 466.916 445.907 466.346 445.267 465.626C444.627 464.906 444.147 464.056 443.827 463.076C443.527 462.076 443.377 460.986 443.377 459.806ZM454.087 458.276C454.107 457.016 453.787 455.986 453.127 455.186C452.487 454.366 451.597 453.956 450.457 453.956C449.817 453.956 449.247 454.086 448.747 454.346C448.267 454.586 447.857 454.906 447.517 455.306C447.177 455.706 446.907 456.166 446.707 456.686C446.527 457.206 446.407 457.736 446.347 458.276H454.087ZM258.02 486.276H262.88L263.93 480.786H266.45L265.4 486.276H268.04V488.496H264.95L263.93 493.866H268.04V496.086H263.51L262.46 501.576H259.94L260.99 496.086H256.13L255.08 501.576H252.56L253.61 496.086H250.97V493.866H254.03L255.05 488.496H250.97V486.276H255.5L256.55 480.786H259.07L258.02 486.276ZM256.55 493.866H261.41L262.46 488.496H257.6L256.55 493.866ZM281.9 485.076C283.04 484.636 284.15 484.076 285.23 483.396C286.31 482.696 287.3 481.826 288.2 480.786H290.18V501.576H287.39V484.656C287.15 484.876 286.85 485.106 286.49 485.346C286.15 485.586 285.77 485.816 285.35 486.036C284.95 486.256 284.52 486.466 284.06 486.666C283.62 486.866 283.19 487.036 282.77 487.176L281.9 485.076ZM312.423 499.536C314.203 499.536 315.473 499.186 316.233 498.486C317.013 497.786 317.403 496.846 317.403 495.666C317.403 494.906 317.243 494.266 316.923 493.746C316.603 493.226 316.183 492.816 315.663 492.516C315.143 492.196 314.533 491.976 313.833 491.856C313.153 491.716 312.453 491.646 311.733 491.646H311.013V489.366H312.003C312.503 489.366 313.013 489.316 313.533 489.216C314.073 489.116 314.563 488.936 315.003 488.676C315.443 488.416 315.803 488.066 316.083 487.626C316.363 487.166 316.503 486.596 316.503 485.916C316.503 485.356 316.403 484.876 316.203 484.476C316.003 484.076 315.733 483.746 315.393 483.486C315.073 483.226 314.693 483.046 314.253 482.946C313.833 482.826 313.383 482.766 312.903 482.766C311.943 482.766 311.123 482.906 310.443 483.186C309.783 483.466 309.223 483.756 308.763 484.056L307.683 481.926C307.923 481.766 308.223 481.596 308.583 481.416C308.963 481.216 309.383 481.036 309.843 480.876C310.303 480.716 310.793 480.586 311.313 480.486C311.853 480.366 312.413 480.306 312.993 480.306C314.093 480.306 315.043 480.446 315.843 480.726C316.643 480.986 317.303 481.366 317.823 481.866C318.343 482.346 318.733 482.926 318.993 483.606C319.253 484.266 319.383 484.986 319.383 485.766C319.383 486.846 319.073 487.776 318.453 488.556C317.833 489.316 317.083 489.896 316.203 490.296C316.743 490.456 317.263 490.686 317.763 490.986C318.263 491.286 318.693 491.666 319.053 492.126C319.433 492.586 319.733 493.116 319.953 493.716C320.193 494.316 320.313 494.986 320.313 495.726C320.313 496.626 320.153 497.466 319.833 498.246C319.533 499.006 319.053 499.666 318.393 500.226C317.753 500.786 316.943 501.226 315.963 501.546C314.983 501.866 313.823 502.026 312.483 502.026C311.963 502.026 311.423 501.986 310.863 501.906C310.323 501.826 309.813 501.726 309.333 501.606C308.853 501.486 308.433 501.366 308.073 501.246C307.713 501.126 307.453 501.026 307.293 500.946L307.833 498.516C308.173 498.676 308.733 498.886 309.513 499.146C310.313 499.406 311.283 499.536 312.423 499.536ZM338.957 499.536C340.737 499.536 342.007 499.186 342.767 498.486C343.547 497.786 343.937 496.846 343.937 495.666C343.937 494.906 343.777 494.266 343.457 493.746C343.137 493.226 342.717 492.816 342.197 492.516C341.677 492.196 341.067 491.976 340.367 491.856C339.687 491.716 338.987 491.646 338.267 491.646H337.547V489.366H338.537C339.037 489.366 339.547 489.316 340.067 489.216C340.607 489.116 341.097 488.936 341.537 488.676C341.977 488.416 342.337 488.066 342.617 487.626C342.897 487.166 343.037 486.596 343.037 485.916C343.037 485.356 342.937 484.876 342.737 484.476C342.537 484.076 342.267 483.746 341.927 483.486C341.607 483.226 341.227 483.046 340.787 482.946C340.367 482.826 339.917 482.766 339.437 482.766C338.477 482.766 337.657 482.906 336.977 483.186C336.317 483.466 335.757 483.756 335.297 484.056L334.217 481.926C334.457 481.766 334.757 481.596 335.117 481.416C335.497 481.216 335.917 481.036 336.377 480.876C336.837 480.716 337.327 480.586 337.847 480.486C338.387 480.366 338.947 480.306 339.527 480.306C340.627 480.306 341.577 480.446 342.377 480.726C343.177 480.986 343.837 481.366 344.357 481.866C344.877 482.346 345.267 482.926 345.527 483.606C345.787 484.266 345.917 484.986 345.917 485.766C345.917 486.846 345.607 487.776 344.987 488.556C344.367 489.316 343.617 489.896 342.737 490.296C343.277 490.456 343.797 490.686 344.297 490.986C344.797 491.286 345.227 491.666 345.587 492.126C345.967 492.586 346.267 493.116 346.487 493.716C346.727 494.316 346.847 494.986 346.847 495.726C346.847 496.626 346.687 497.466 346.367 498.246C346.067 499.006 345.587 499.666 344.927 500.226C344.287 500.786 343.477 501.226 342.497 501.546C341.517 501.866 340.357 502.026 339.017 502.026C338.497 502.026 337.957 501.986 337.397 501.906C336.857 501.826 336.347 501.726 335.867 501.606C335.387 501.486 334.967 501.366 334.607 501.246C334.247 501.126 333.987 501.026 333.827 500.946L334.367 498.516C334.707 498.676 335.267 498.886 336.047 499.146C336.847 499.406 337.817 499.536 338.957 499.536ZM361.501 485.076C362.641 484.636 363.751 484.076 364.831 483.396C365.911 482.696 366.901 481.826 367.801 480.786H369.781V501.576H366.991V484.656C366.751 484.876 366.451 485.106 366.091 485.346C365.751 485.586 365.371 485.816 364.951 486.036C364.551 486.256 364.121 486.466 363.661 486.666C363.221 486.866 362.791 487.036 362.371 487.176L361.501 485.076ZM391.214 488.796C394.234 488.916 396.444 489.576 397.844 490.776C399.264 491.976 399.974 493.606 399.974 495.666C399.974 496.586 399.814 497.436 399.494 498.216C399.194 498.996 398.724 499.666 398.084 500.226C397.464 500.786 396.674 501.226 395.714 501.546C394.754 501.866 393.614 502.026 392.294 502.026C391.774 502.026 391.244 501.986 390.704 501.906C390.164 501.826 389.664 501.726 389.204 501.606C388.744 501.486 388.334 501.366 387.974 501.246C387.614 501.126 387.354 501.026 387.194 500.946L387.734 498.516C388.074 498.676 388.624 498.886 389.384 499.146C390.164 499.406 391.114 499.536 392.234 499.536C393.134 499.536 393.884 499.436 394.484 499.236C395.104 499.036 395.604 498.766 395.984 498.426C396.364 498.086 396.634 497.696 396.794 497.256C396.974 496.796 397.064 496.316 397.064 495.816C397.064 495.056 396.934 494.386 396.674 493.806C396.414 493.206 395.954 492.706 395.294 492.306C394.634 491.906 393.754 491.606 392.654 491.406C391.554 491.186 390.164 491.076 388.484 491.076C388.604 490.096 388.694 489.176 388.754 488.316C388.834 487.456 388.904 486.616 388.964 485.796C389.024 484.976 389.074 484.166 389.114 483.366C389.154 482.546 389.194 481.686 389.234 480.786H399.254V483.156H391.664C391.644 483.456 391.614 483.866 391.574 484.386C391.534 484.886 391.494 485.416 391.454 485.976C391.414 486.516 391.374 487.046 391.334 487.566C391.294 488.086 391.254 488.496 391.214 488.796ZM423.298 502.026C421.838 502.026 420.508 501.786 419.308 501.306C418.108 500.826 417.078 500.126 416.218 499.206C415.358 498.286 414.688 497.156 414.208 495.816C413.748 494.456 413.518 492.906 413.518 491.166C413.518 489.426 413.778 487.886 414.298 486.546C414.838 485.186 415.558 484.046 416.458 483.126C417.358 482.206 418.408 481.506 419.608 481.026C420.808 480.546 422.088 480.306 423.448 480.306C424.308 480.306 425.078 480.366 425.758 480.486C426.458 480.606 427.058 480.746 427.558 480.906C428.078 481.066 428.498 481.226 428.818 481.386C429.138 481.546 429.358 481.666 429.478 481.746L428.638 484.146C428.458 484.026 428.198 483.896 427.858 483.756C427.518 483.616 427.128 483.476 426.688 483.336C426.268 483.196 425.798 483.086 425.278 483.006C424.778 482.906 424.268 482.856 423.748 482.856C422.648 482.856 421.658 483.046 420.778 483.426C419.898 483.806 419.148 484.356 418.528 485.076C417.908 485.796 417.428 486.676 417.088 487.716C416.768 488.736 416.608 489.886 416.608 491.166C416.608 492.406 416.748 493.536 417.028 494.556C417.328 495.576 417.768 496.456 418.348 497.196C418.928 497.916 419.648 498.476 420.508 498.876C421.388 499.276 422.408 499.476 423.568 499.476C424.908 499.476 426.018 499.336 426.898 499.056C427.778 498.776 428.438 498.526 428.878 498.306L429.628 500.706C429.488 500.806 429.238 500.936 428.878 501.096C428.518 501.236 428.068 501.376 427.528 501.516C426.988 501.656 426.358 501.776 425.638 501.876C424.918 501.976 424.138 502.026 423.298 502.026Z" fill="#13315C"/>
<rect x="710.5" y="219.575" width="200" height="200" rx="20" fill="#0B2545"/>
<path d="M743.889 457.166C743.889 458.966 743.609 460.536 743.049 461.876C742.489 463.196 741.699 464.296 740.679 465.176C739.659 466.036 738.439 466.686 737.019 467.126C735.599 467.546 734.039 467.756 732.339 467.756C731.499 467.756 730.569 467.716 729.549 467.636C728.549 467.576 727.639 467.446 726.819 467.246V447.085C727.639 446.885 728.549 446.755 729.549 446.695C730.569 446.615 731.499 446.575 732.339 446.575C734.039 446.575 735.599 446.795 737.019 447.235C738.439 447.656 739.659 448.306 740.679 449.185C741.699 450.045 742.489 451.145 743.049 452.485C743.609 453.806 743.889 455.366 743.889 457.166ZM732.579 465.206C735.339 465.206 737.399 464.506 738.759 463.106C740.119 461.686 740.799 459.706 740.799 457.166C740.799 454.625 740.119 452.655 738.759 451.255C737.399 449.836 735.339 449.126 732.579 449.126C731.759 449.126 731.119 449.136 730.659 449.155C730.219 449.175 729.909 449.195 729.729 449.215V465.116C729.909 465.136 730.219 465.156 730.659 465.176C731.119 465.196 731.759 465.206 732.579 465.206ZM762.495 465.566C763.155 465.566 763.735 465.556 764.235 465.536C764.755 465.496 765.185 465.436 765.525 465.356V460.705C765.325 460.606 764.995 460.526 764.535 460.465C764.095 460.386 763.555 460.346 762.915 460.346C762.495 460.346 762.045 460.376 761.565 460.436C761.105 460.496 760.675 460.626 760.275 460.826C759.895 461.006 759.575 461.266 759.315 461.606C759.055 461.926 758.925 462.356 758.925 462.896C758.925 463.896 759.245 464.596 759.885 464.996C760.525 465.376 761.395 465.566 762.495 465.566ZM762.255 451.585C763.375 451.585 764.315 451.735 765.075 452.036C765.855 452.316 766.475 452.726 766.935 453.265C767.415 453.785 767.755 454.415 767.955 455.155C768.155 455.875 768.255 456.675 768.255 457.555V467.306C768.015 467.346 767.675 467.406 767.235 467.486C766.815 467.546 766.335 467.606 765.795 467.666C765.255 467.726 764.665 467.776 764.025 467.816C763.405 467.876 762.785 467.906 762.165 467.906C761.285 467.906 760.475 467.816 759.735 467.636C758.995 467.456 758.355 467.176 757.815 466.796C757.275 466.396 756.855 465.876 756.555 465.236C756.255 464.596 756.105 463.826 756.105 462.926C756.105 462.066 756.275 461.326 756.615 460.705C756.975 460.085 757.455 459.585 758.055 459.206C758.655 458.826 759.355 458.546 760.155 458.366C760.955 458.186 761.795 458.096 762.675 458.096C762.955 458.096 763.245 458.116 763.545 458.156C763.845 458.175 764.125 458.215 764.385 458.276C764.665 458.315 764.905 458.355 765.105 458.395C765.305 458.435 765.445 458.466 765.525 458.486V457.705C765.525 457.245 765.475 456.795 765.375 456.356C765.275 455.896 765.095 455.495 764.835 455.155C764.575 454.795 764.215 454.515 763.755 454.315C763.315 454.095 762.735 453.986 762.015 453.986C761.095 453.986 760.285 454.056 759.585 454.196C758.905 454.315 758.395 454.445 758.055 454.585L757.725 452.275C758.085 452.115 758.685 451.965 759.525 451.825C760.365 451.665 761.275 451.585 762.255 451.585ZM788.249 451.645C788.489 451.645 788.759 451.665 789.059 451.705C789.379 451.726 789.689 451.766 789.989 451.825C790.289 451.866 790.559 451.916 790.799 451.975C791.059 452.015 791.249 452.056 791.369 452.095L790.889 454.525C790.669 454.445 790.299 454.355 789.779 454.255C789.279 454.135 788.629 454.075 787.829 454.075C787.309 454.075 786.789 454.135 786.269 454.255C785.769 454.355 785.439 454.426 785.279 454.466V467.576H782.489V452.635C783.149 452.395 783.969 452.175 784.949 451.975C785.929 451.755 787.029 451.645 788.249 451.645ZM809.302 458.996C809.902 459.456 810.532 460.026 811.192 460.705C811.872 461.386 812.532 462.126 813.172 462.926C813.832 463.706 814.452 464.506 815.032 465.326C815.612 466.126 816.102 466.876 816.502 467.576H813.232C812.812 466.876 812.322 466.166 811.762 465.446C811.222 464.706 810.652 464.006 810.052 463.346C809.452 462.666 808.842 462.046 808.222 461.486C807.602 460.926 807.012 460.456 806.452 460.076V467.576H803.662V444.775L806.452 444.295V458.516C806.932 458.036 807.462 457.506 808.042 456.925C808.622 456.346 809.192 455.756 809.752 455.155C810.312 454.555 810.842 453.985 811.342 453.446C811.842 452.886 812.272 452.395 812.632 451.975H815.902C815.442 452.475 814.942 453.025 814.402 453.625C813.862 454.225 813.302 454.835 812.722 455.456C812.142 456.056 811.552 456.665 810.952 457.285C810.372 457.885 809.822 458.455 809.302 458.996ZM827.274 459.806C827.274 458.426 827.474 457.226 827.874 456.206C828.274 455.165 828.804 454.305 829.464 453.625C830.124 452.945 830.884 452.435 831.744 452.095C832.604 451.755 833.484 451.585 834.384 451.585C836.484 451.585 838.094 452.245 839.214 453.566C840.334 454.866 840.894 456.856 840.894 459.536C840.894 459.655 840.894 459.815 840.894 460.016C840.894 460.196 840.884 460.366 840.864 460.526H830.184C830.304 462.146 830.774 463.376 831.594 464.216C832.414 465.056 833.694 465.476 835.434 465.476C836.414 465.476 837.234 465.396 837.894 465.236C838.574 465.056 839.084 464.886 839.424 464.726L839.814 467.066C839.474 467.246 838.874 467.436 838.014 467.636C837.174 467.836 836.214 467.936 835.134 467.936C833.774 467.936 832.594 467.736 831.594 467.336C830.614 466.916 829.804 466.346 829.164 465.626C828.524 464.906 828.044 464.056 827.724 463.076C827.424 462.076 827.274 460.986 827.274 459.806ZM837.984 458.276C838.004 457.015 837.684 455.985 837.024 455.185C836.384 454.365 835.494 453.955 834.354 453.955C833.714 453.955 833.144 454.085 832.644 454.346C832.164 454.585 831.754 454.905 831.414 455.306C831.074 455.705 830.804 456.165 830.604 456.686C830.424 457.206 830.304 457.736 830.244 458.276H837.984ZM858.132 465.566C859.272 465.566 860.112 465.416 860.652 465.116C861.212 464.816 861.492 464.336 861.492 463.676C861.492 462.996 861.222 462.456 860.682 462.056C860.142 461.656 859.252 461.206 858.012 460.705C857.412 460.466 856.832 460.226 856.272 459.985C855.732 459.726 855.262 459.426 854.862 459.085C854.462 458.746 854.142 458.336 853.902 457.856C853.662 457.376 853.542 456.785 853.542 456.086C853.542 454.705 854.052 453.615 855.072 452.816C856.092 451.995 857.482 451.585 859.242 451.585C859.682 451.585 860.122 451.615 860.562 451.675C861.002 451.716 861.412 451.776 861.792 451.855C862.172 451.915 862.502 451.985 862.782 452.065C863.082 452.146 863.312 452.215 863.472 452.275L862.962 454.676C862.662 454.515 862.192 454.355 861.552 454.196C860.912 454.016 860.142 453.926 859.242 453.926C858.462 453.926 857.782 454.086 857.202 454.406C856.622 454.705 856.332 455.185 856.332 455.845C856.332 456.185 856.392 456.485 856.512 456.745C856.652 457.005 856.852 457.245 857.112 457.466C857.392 457.665 857.732 457.855 858.132 458.035C858.532 458.215 859.012 458.405 859.572 458.605C860.312 458.885 860.972 459.165 861.552 459.445C862.132 459.705 862.622 460.016 863.022 460.376C863.442 460.736 863.762 461.176 863.982 461.696C864.202 462.196 864.312 462.816 864.312 463.556C864.312 464.996 863.772 466.086 862.692 466.826C861.632 467.566 860.112 467.936 858.132 467.936C856.752 467.936 855.672 467.816 854.892 467.576C854.112 467.356 853.582 467.186 853.302 467.066L853.812 464.666C854.132 464.786 854.642 464.966 855.342 465.206C856.042 465.446 856.972 465.566 858.132 465.566ZM880.101 451.975H886.011V454.315H880.101V461.516C880.101 462.296 880.161 462.946 880.281 463.466C880.401 463.966 880.581 464.366 880.821 464.666C881.061 464.946 881.361 465.146 881.721 465.266C882.081 465.386 882.501 465.446 882.981 465.446C883.821 465.446 884.491 465.356 884.991 465.176C885.511 464.976 885.871 464.836 886.071 464.756L886.611 467.066C886.331 467.206 885.841 467.376 885.141 467.576C884.441 467.796 883.641 467.906 882.741 467.906C881.681 467.906 880.801 467.776 880.101 467.516C879.421 467.236 878.871 466.826 878.451 466.286C878.031 465.746 877.731 465.086 877.551 464.306C877.391 463.506 877.311 462.586 877.311 461.546V447.625L880.101 447.145V451.975ZM773.558 501.756C773.138 501.756 772.678 501.746 772.178 501.726C771.698 501.706 771.208 501.676 770.708 501.636C770.228 501.596 769.748 501.546 769.268 501.486C768.788 501.426 768.348 501.346 767.948 501.246V481.085C768.348 480.985 768.788 480.905 769.268 480.845C769.748 480.785 770.228 480.735 770.708 480.695C771.208 480.655 771.698 480.625 772.178 480.605C772.658 480.585 773.108 480.575 773.528 480.575C774.728 480.575 775.848 480.665 776.888 480.845C777.948 481.025 778.858 481.335 779.618 481.775C780.398 482.195 781.008 482.755 781.448 483.455C781.888 484.156 782.108 485.016 782.108 486.036C782.108 487.175 781.838 488.115 781.298 488.855C780.758 489.576 780.038 490.116 779.138 490.476C780.358 490.835 781.328 491.405 782.048 492.185C782.768 492.965 783.128 494.066 783.128 495.486C783.128 497.566 782.358 499.136 780.818 500.196C779.298 501.236 776.878 501.756 773.558 501.756ZM770.828 491.886V499.206C771.048 499.226 771.308 499.246 771.608 499.266C771.868 499.286 772.168 499.306 772.508 499.326C772.868 499.326 773.278 499.326 773.738 499.326C774.598 499.326 775.408 499.276 776.168 499.176C776.948 499.056 777.628 498.856 778.208 498.576C778.788 498.296 779.248 497.906 779.588 497.406C779.948 496.906 780.128 496.276 780.128 495.516C780.128 494.836 779.998 494.266 779.738 493.806C779.478 493.326 779.098 492.945 778.598 492.665C778.118 492.385 777.538 492.186 776.858 492.066C776.178 491.946 775.418 491.886 774.578 491.886H770.828ZM770.828 489.545H773.888C774.608 489.545 775.288 489.495 775.928 489.395C776.568 489.296 777.118 489.115 777.578 488.855C778.058 488.596 778.428 488.256 778.688 487.835C778.968 487.415 779.108 486.885 779.108 486.245C779.108 485.645 778.968 485.145 778.688 484.745C778.408 484.325 778.018 483.995 777.518 483.755C777.038 483.495 776.468 483.305 775.808 483.185C775.148 483.065 774.448 483.005 773.708 483.005C772.968 483.005 772.388 483.015 771.968 483.035C771.548 483.055 771.168 483.085 770.828 483.126V489.545ZM801.325 501.876C799.605 501.836 798.385 501.466 797.665 500.766C796.945 500.066 796.585 498.976 796.585 497.496V478.775L799.375 478.295V497.046C799.375 497.506 799.415 497.886 799.495 498.186C799.575 498.486 799.705 498.726 799.885 498.906C800.065 499.086 800.305 499.226 800.605 499.326C800.905 499.406 801.275 499.476 801.715 499.536L801.325 501.876ZM826.868 501.126C826.228 501.286 825.378 501.456 824.318 501.636C823.278 501.816 822.068 501.906 820.688 501.906C819.488 501.906 818.478 501.736 817.658 501.396C816.838 501.036 816.178 500.536 815.678 499.896C815.178 499.256 814.818 498.506 814.598 497.646C814.378 496.766 814.268 495.796 814.268 494.736V485.975H817.058V494.136C817.058 496.036 817.358 497.396 817.958 498.216C818.558 499.036 819.568 499.446 820.988 499.446C821.288 499.446 821.598 499.436 821.918 499.416C822.238 499.396 822.538 499.376 822.818 499.356C823.098 499.316 823.348 499.286 823.568 499.266C823.808 499.226 823.978 499.186 824.078 499.146V485.975H826.868V501.126ZM840.405 493.806C840.405 492.426 840.605 491.226 841.005 490.206C841.405 489.165 841.935 488.305 842.595 487.625C843.255 486.945 844.015 486.435 844.875 486.095C845.735 485.755 846.615 485.585 847.515 485.585C849.615 485.585 851.225 486.245 852.345 487.566C853.465 488.866 854.025 490.856 854.025 493.536C854.025 493.655 854.025 493.815 854.025 494.016C854.025 494.196 854.015 494.366 853.995 494.526H843.315C843.435 496.146 843.905 497.376 844.725 498.216C845.545 499.056 846.825 499.476 848.565 499.476C849.545 499.476 850.365 499.396 851.025 499.236C851.705 499.056 852.215 498.886 852.555 498.726L852.945 501.066C852.605 501.246 852.005 501.436 851.145 501.636C850.305 501.836 849.345 501.936 848.265 501.936C846.905 501.936 845.725 501.736 844.725 501.336C843.745 500.916 842.935 500.346 842.295 499.626C841.655 498.906 841.175 498.056 840.855 497.076C840.555 496.076 840.405 494.986 840.405 493.806ZM851.115 492.276C851.135 491.015 850.815 489.985 850.155 489.185C849.515 488.365 848.625 487.955 847.485 487.955C846.845 487.955 846.275 488.085 845.775 488.346C845.295 488.585 844.885 488.905 844.545 489.306C844.205 489.705 843.935 490.165 843.735 490.686C843.555 491.206 843.435 491.736 843.375 492.276H851.115ZM728.242 520.275H733.102L734.152 514.785H736.672L735.622 520.275H738.262V522.495H735.172L734.152 527.866H738.262V530.086H733.732L732.682 535.576H730.162L731.212 530.086H726.352L725.302 535.576H722.782L723.832 530.086H721.192V527.866H724.252L725.272 522.495H721.192V520.275H725.722L726.772 514.785H729.292L728.242 520.275ZM726.772 527.866H731.632L732.682 522.495H727.822L726.772 527.866ZM750.832 525.166C750.832 521.685 751.442 519.005 752.662 517.126C753.902 515.245 755.612 514.305 757.792 514.305C759.972 514.305 761.672 515.245 762.892 517.126C764.132 519.005 764.752 521.685 764.752 525.166C764.752 528.646 764.132 531.326 762.892 533.206C761.672 535.086 759.972 536.026 757.792 536.026C755.612 536.026 753.902 535.086 752.662 533.206C751.442 531.326 750.832 528.646 750.832 525.166ZM761.812 525.166C761.812 524.026 761.742 522.946 761.602 521.926C761.482 520.905 761.262 520.015 760.942 519.255C760.642 518.495 760.232 517.895 759.712 517.455C759.192 516.995 758.552 516.765 757.792 516.765C757.032 516.765 756.392 516.995 755.872 517.455C755.352 517.895 754.932 518.495 754.612 519.255C754.312 520.015 754.092 520.905 753.952 521.926C753.832 522.946 753.772 524.026 753.772 525.166C753.772 526.306 753.832 527.385 753.952 528.406C754.092 529.426 754.312 530.316 754.612 531.076C754.932 531.836 755.352 532.446 755.872 532.906C756.392 533.346 757.032 533.566 757.792 533.566C758.552 533.566 759.192 533.346 759.712 532.906C760.232 532.446 760.642 531.836 760.942 531.076C761.262 530.316 761.482 529.426 761.602 528.406C761.742 527.385 761.812 526.306 761.812 525.166ZM784.056 535.756C783.636 535.756 783.176 535.746 782.676 535.726C782.196 535.706 781.706 535.676 781.206 535.636C780.726 535.596 780.246 535.546 779.766 535.486C779.286 535.426 778.846 535.346 778.446 535.246V515.085C778.846 514.985 779.286 514.905 779.766 514.845C780.246 514.785 780.726 514.735 781.206 514.695C781.706 514.655 782.196 514.625 782.676 514.605C783.156 514.585 783.606 514.575 784.026 514.575C785.226 514.575 786.346 514.665 787.386 514.845C788.446 515.025 789.356 515.335 790.116 515.775C790.896 516.195 791.506 516.755 791.946 517.455C792.386 518.156 792.606 519.016 792.606 520.036C792.606 521.175 792.336 522.115 791.796 522.855C791.256 523.576 790.536 524.116 789.636 524.476C790.856 524.835 791.826 525.405 792.546 526.185C793.266 526.965 793.626 528.066 793.626 529.486C793.626 531.566 792.856 533.136 791.316 534.196C789.796 535.236 787.376 535.756 784.056 535.756ZM781.326 525.886V533.206C781.546 533.226 781.806 533.246 782.106 533.266C782.366 533.286 782.666 533.306 783.006 533.326C783.366 533.326 783.776 533.326 784.236 533.326C785.096 533.326 785.906 533.276 786.666 533.176C787.446 533.056 788.126 532.856 788.706 532.576C789.286 532.296 789.746 531.906 790.086 531.406C790.446 530.906 790.626 530.276 790.626 529.516C790.626 528.836 790.496 528.266 790.236 527.806C789.976 527.326 789.596 526.945 789.096 526.665C788.616 526.385 788.036 526.186 787.356 526.066C786.676 525.946 785.916 525.886 785.076 525.886H781.326ZM781.326 523.545H784.386C785.106 523.545 785.786 523.495 786.426 523.395C787.066 523.296 787.616 523.115 788.076 522.855C788.556 522.596 788.926 522.256 789.186 521.835C789.466 521.415 789.606 520.885 789.606 520.245C789.606 519.645 789.466 519.145 789.186 518.745C788.906 518.325 788.516 517.995 788.016 517.755C787.536 517.495 786.966 517.305 786.306 517.185C785.646 517.065 784.946 517.005 784.206 517.005C783.466 517.005 782.886 517.015 782.466 517.035C782.046 517.055 781.666 517.085 781.326 517.126V523.545ZM818.753 520.095C818.753 520.815 818.603 521.516 818.303 522.196C818.023 522.856 817.643 523.515 817.163 524.175C816.683 524.815 816.143 525.455 815.543 526.096C814.943 526.715 814.343 527.325 813.743 527.925C813.403 528.266 813.003 528.666 812.543 529.126C812.103 529.586 811.683 530.066 811.283 530.566C810.883 531.066 810.543 531.546 810.263 532.006C810.003 532.466 809.873 532.866 809.873 533.206H819.443V535.576H806.843C806.823 535.456 806.813 535.336 806.813 535.216C806.813 535.096 806.813 534.986 806.813 534.886C806.813 533.946 806.963 533.076 807.263 532.276C807.583 531.456 807.993 530.686 808.493 529.966C808.993 529.246 809.553 528.566 810.173 527.925C810.793 527.286 811.403 526.666 812.003 526.066C812.503 525.586 812.973 525.115 813.413 524.655C813.873 524.176 814.273 523.706 814.613 523.246C814.973 522.765 815.253 522.275 815.453 521.776C815.673 521.276 815.783 520.746 815.783 520.186C815.783 519.585 815.683 519.075 815.483 518.656C815.303 518.235 815.053 517.885 814.733 517.605C814.413 517.325 814.033 517.125 813.593 517.005C813.173 516.865 812.723 516.795 812.243 516.795C811.663 516.795 811.133 516.875 810.653 517.035C810.173 517.195 809.743 517.385 809.363 517.605C808.983 517.805 808.663 518.025 808.403 518.265C808.143 518.485 807.943 518.655 807.803 518.776L806.423 516.795C806.603 516.595 806.873 516.355 807.233 516.075C807.593 515.775 808.023 515.495 808.523 515.235C809.023 514.975 809.583 514.755 810.203 514.575C810.823 514.395 811.493 514.305 812.213 514.305C814.393 514.305 816.023 514.815 817.103 515.835C818.203 516.835 818.753 518.255 818.753 520.095ZM837.247 522.795C840.267 522.915 842.477 523.576 843.877 524.776C845.297 525.976 846.007 527.606 846.007 529.666C846.007 530.586 845.847 531.436 845.527 532.216C845.227 532.996 844.757 533.666 844.117 534.226C843.497 534.786 842.707 535.226 841.747 535.546C840.787 535.866 839.647 536.026 838.327 536.026C837.807 536.026 837.277 535.986 836.737 535.906C836.197 535.826 835.697 535.726 835.237 535.606C834.777 535.486 834.367 535.366 834.007 535.246C833.647 535.126 833.387 535.026 833.227 534.946L833.767 532.516C834.107 532.676 834.657 532.886 835.417 533.146C836.197 533.406 837.147 533.536 838.267 533.536C839.167 533.536 839.917 533.436 840.517 533.236C841.137 533.036 841.637 532.766 842.017 532.426C842.397 532.086 842.667 531.696 842.827 531.256C843.007 530.796 843.097 530.316 843.097 529.816C843.097 529.056 842.967 528.386 842.707 527.806C842.447 527.206 841.987 526.706 841.327 526.306C840.667 525.905 839.787 525.605 838.687 525.405C837.587 525.185 836.197 525.075 834.517 525.075C834.637 524.095 834.727 523.175 834.787 522.315C834.867 521.455 834.937 520.615 834.997 519.795C835.057 518.975 835.107 518.165 835.147 517.365C835.187 516.545 835.227 515.686 835.267 514.785H845.287V517.155H837.697C837.677 517.455 837.647 517.865 837.607 518.386C837.567 518.885 837.527 519.415 837.487 519.975C837.447 520.515 837.407 521.045 837.367 521.566C837.327 522.086 837.287 522.495 837.247 522.795ZM859.01 528.376C859.39 527.496 859.91 526.476 860.57 525.316C861.23 524.135 861.97 522.925 862.79 521.685C863.63 520.445 864.52 519.225 865.46 518.025C866.42 516.825 867.38 515.745 868.34 514.785H871.01V527.985H873.47V530.266H871.01V535.576H868.31V530.266H859.01V528.376ZM868.31 518.086C867.71 518.726 867.1 519.446 866.48 520.245C865.88 521.025 865.29 521.845 864.71 522.705C864.13 523.566 863.58 524.446 863.06 525.345C862.56 526.246 862.11 527.126 861.71 527.985H868.31V518.086ZM890.314 522.795C893.334 522.915 895.544 523.576 896.944 524.776C898.364 525.976 899.074 527.606 899.074 529.666C899.074 530.586 898.914 531.436 898.594 532.216C898.294 532.996 897.824 533.666 897.184 534.226C896.564 534.786 895.774 535.226 894.814 535.546C893.854 535.866 892.714 536.026 891.394 536.026C890.874 536.026 890.344 535.986 889.804 535.906C889.264 535.826 888.764 535.726 888.304 535.606C887.844 535.486 887.434 535.366 887.074 535.246C886.714 535.126 886.454 535.026 886.294 534.946L886.834 532.516C887.174 532.676 887.724 532.886 888.484 533.146C889.264 533.406 890.214 533.536 891.334 533.536C892.234 533.536 892.984 533.436 893.584 533.236C894.204 533.036 894.704 532.766 895.084 532.426C895.464 532.086 895.734 531.696 895.894 531.256C896.074 530.796 896.164 530.316 896.164 529.816C896.164 529.056 896.034 528.386 895.774 527.806C895.514 527.206 895.054 526.706 894.394 526.306C893.734 525.905 892.854 525.605 891.754 525.405C890.654 525.185 889.264 525.075 887.584 525.075C887.704 524.095 887.794 523.175 887.854 522.315C887.934 521.455 888.004 520.615 888.064 519.795C888.124 518.975 888.174 518.165 888.214 517.365C888.254 516.545 888.294 515.686 888.334 514.785H898.354V517.155H890.764C890.744 517.455 890.714 517.865 890.674 518.386C890.634 518.885 890.594 519.415 890.554 519.975C890.514 520.515 890.474 521.045 890.434 521.566C890.394 522.086 890.354 522.495 890.314 522.795Z" fill="#0B2545"/>
</svg>
