<svg width="585" height="270" viewBox="0 0 585 270" fill="none" xmlns="http://www.w3.org/2000/svg">
<rect x="44" y="2" width="167" height="76" rx="18" fill="#EEF4ED"/>
<rect x="44" y="2" width="167" height="76" rx="18" stroke="#0B2545" stroke-width="4"/>
<path d="M84.1344 40.8844L77.8844 47.1344C77.7682 47.2505 77.6304 47.3426 77.4786 47.4055C77.3269 47.4683 77.1642 47.5007 77 47.5007C76.8358 47.5007 76.6731 47.4683 76.5214 47.4055C76.3696 47.3426 76.2318 47.2505 76.1156 47.1344C75.9995 47.0182 75.9074 46.8804 75.8445 46.7286C75.7817 46.5769 75.7493 46.4142 75.7493 46.25C75.7493 46.0858 75.7817 45.9231 75.8445 45.7714C75.9074 45.6196 75.9995 45.4818 76.1156 45.3656L80.2328 41.25H65.75C65.4185 41.25 65.1005 41.1183 64.8661 40.8839C64.6317 40.6495 64.5 40.3315 64.5 40C64.5 39.6685 64.6317 39.3505 64.8661 39.1161C65.1005 38.8817 65.4185 38.75 65.75 38.75H80.2328L76.1156 34.6344C75.8811 34.3998 75.7493 34.0817 75.7493 33.75C75.7493 33.4183 75.8811 33.1002 76.1156 32.8656C76.3502 32.6311 76.6683 32.4993 77 32.4993C77.3317 32.4993 77.6498 32.6311 77.8844 32.8656L84.1344 39.1156C84.2506 39.2317 84.3428 39.3696 84.4057 39.5213C84.4686 39.6731 84.501 39.8357 84.501 40C84.501 40.1643 84.4686 40.3269 84.4057 40.4787C84.3428 40.6304 84.2506 40.7683 84.1344 40.8844ZM93.25 25H83.25C82.9185 25 82.6005 25.1317 82.3661 25.3661C82.1317 25.6005 82 25.9185 82 26.25C82 26.5815 82.1317 26.8995 82.3661 27.1339C82.6005 27.3683 82.9185 27.5 83.25 27.5H92V52.5H83.25C82.9185 52.5 82.6005 52.6317 82.3661 52.8661C82.1317 53.1005 82 53.4185 82 53.75C82 54.0815 82.1317 54.3995 82.3661 54.6339C82.6005 54.8683 82.9185 55 83.25 55H93.25C93.5815 55 93.8995 54.8683 94.1339 54.6339C94.3683 54.3995 94.5 54.0815 94.5 53.75V26.25C94.5 25.9185 94.3683 25.6005 94.1339 25.3661C93.8995 25.1317 93.5815 25 93.25 25Z" fill="#0B2545"/>
<path d="M126.209 46.516V50H114.171V31.982H118.227V46.516H126.209ZM131.719 40.978C131.719 41.862 131.823 42.6593 132.031 43.37C132.257 44.0807 132.569 44.696 132.967 45.216C133.383 45.7187 133.886 46.1087 134.475 46.386C135.065 46.6633 135.741 46.802 136.503 46.802C137.249 46.802 137.916 46.6633 138.505 46.386C139.112 46.1087 139.615 45.7187 140.013 45.216C140.429 44.696 140.741 44.0807 140.949 43.37C141.175 42.6593 141.287 41.862 141.287 40.978C141.287 40.094 141.175 39.2967 140.949 38.586C140.741 37.858 140.429 37.2427 140.013 36.74C139.615 36.22 139.112 35.8213 138.505 35.544C137.916 35.2667 137.249 35.128 136.503 35.128C135.741 35.128 135.065 35.2753 134.475 35.57C133.886 35.8473 133.383 36.246 132.967 36.766C132.569 37.2687 132.257 37.884 132.031 38.612C131.823 39.3227 131.719 40.1113 131.719 40.978ZM145.473 40.978C145.473 42.5207 145.239 43.8813 144.771 45.06C144.321 46.2213 143.697 47.2007 142.899 47.998C142.102 48.778 141.149 49.3673 140.039 49.766C138.947 50.1647 137.769 50.364 136.503 50.364C135.273 50.364 134.111 50.1647 133.019 49.766C131.927 49.3673 130.974 48.778 130.159 47.998C129.345 47.2007 128.703 46.2213 128.235 45.06C127.767 43.8813 127.533 42.5207 127.533 40.978C127.533 39.4353 127.776 38.0833 128.261 36.922C128.747 35.7433 129.397 34.7553 130.211 33.958C131.043 33.1607 131.997 32.5627 133.071 32.164C134.163 31.7653 135.307 31.566 136.503 31.566C137.734 31.566 138.895 31.7653 139.987 32.164C141.079 32.5627 142.033 33.1607 142.847 33.958C143.662 34.7553 144.303 35.7433 144.771 36.922C145.239 38.0833 145.473 39.4353 145.473 40.978ZM157.642 35.102C155.753 35.102 154.384 35.6307 153.534 36.688C152.702 37.728 152.286 39.158 152.286 40.978C152.286 41.862 152.39 42.668 152.598 43.396C152.806 44.1067 153.118 44.722 153.534 45.242C153.95 45.762 154.47 46.1693 155.094 46.464C155.718 46.7413 156.446 46.88 157.278 46.88C157.729 46.88 158.11 46.8713 158.422 46.854C158.752 46.8367 159.038 46.802 159.28 46.75V40.484H163.336V49.402C162.851 49.5927 162.071 49.792 160.996 50C159.922 50.2253 158.596 50.338 157.018 50.338C155.666 50.338 154.436 50.13 153.326 49.714C152.234 49.298 151.298 48.6913 150.518 47.894C149.738 47.0967 149.132 46.1173 148.698 44.956C148.282 43.7947 148.074 42.4687 148.074 40.978C148.074 39.47 148.308 38.1353 148.776 36.974C149.244 35.8127 149.886 34.8333 150.7 34.036C151.515 33.2213 152.468 32.606 153.56 32.19C154.67 31.774 155.848 31.566 157.096 31.566C157.946 31.566 158.708 31.6267 159.384 31.748C160.078 31.852 160.667 31.982 161.152 32.138C161.655 32.2767 162.062 32.424 162.374 32.58C162.704 32.736 162.938 32.8573 163.076 32.944L161.906 36.194C161.352 35.8993 160.71 35.648 159.982 35.44C159.272 35.2147 158.492 35.102 157.642 35.102ZM167.11 31.982H171.166V50H167.11V31.982ZM187.427 50C186.266 47.9373 185.009 45.9007 183.657 43.89C182.305 41.8793 180.866 39.9813 179.341 38.196V50H175.337V31.982H178.639C179.211 32.554 179.844 33.256 180.537 34.088C181.23 34.92 181.932 35.8127 182.643 36.766C183.371 37.702 184.09 38.6813 184.801 39.704C185.512 40.7093 186.179 41.68 186.803 42.616V31.982H190.833V50H187.427Z" fill="#0B2545"/>
<rect x="317" y="2" width="266" height="76" rx="18" fill="#EEF4ED"/>
<rect x="317" y="2" width="266" height="76" rx="18" stroke="#0B2545" stroke-width="4"/>
<path d="M345.505 50.364C342.576 50.364 340.34 49.5493 338.797 47.92C337.272 46.2907 336.509 43.9767 336.509 40.978C336.509 39.4873 336.743 38.1613 337.211 37C337.679 35.8213 338.32 34.8333 339.135 34.036C339.95 33.2213 340.92 32.606 342.047 32.19C343.174 31.774 344.396 31.566 345.713 31.566C346.476 31.566 347.169 31.6267 347.793 31.748C348.417 31.852 348.963 31.982 349.431 32.138C349.899 32.2767 350.289 32.424 350.601 32.58C350.913 32.736 351.138 32.8573 351.277 32.944L350.107 36.22C349.552 35.9253 348.902 35.674 348.157 35.466C347.429 35.258 346.597 35.154 345.661 35.154C345.037 35.154 344.422 35.258 343.815 35.466C343.226 35.674 342.697 36.012 342.229 36.48C341.778 36.9307 341.414 37.52 341.137 38.248C340.86 38.976 340.721 39.86 340.721 40.9C340.721 41.732 340.808 42.512 340.981 43.24C341.172 43.9507 341.466 44.566 341.865 45.086C342.281 45.606 342.818 46.022 343.477 46.334C344.136 46.6287 344.933 46.776 345.869 46.776C346.458 46.776 346.987 46.7413 347.455 46.672C347.923 46.6027 348.339 46.5247 348.703 46.438C349.067 46.334 349.388 46.2213 349.665 46.1C349.942 45.9787 350.194 45.866 350.419 45.762L351.537 49.012C350.965 49.3587 350.159 49.6707 349.119 49.948C348.079 50.2253 346.874 50.364 345.505 50.364ZM359.426 31.774C362.13 31.774 364.202 32.2593 365.64 33.23C367.079 34.1833 367.798 35.674 367.798 37.702C367.798 38.9673 367.504 39.9987 366.914 40.796C366.342 41.576 365.51 42.1913 364.418 42.642C364.782 43.0927 365.164 43.6127 365.562 44.202C365.961 44.774 366.351 45.3807 366.732 46.022C367.131 46.646 367.512 47.3047 367.876 47.998C368.24 48.674 368.578 49.3413 368.89 50H364.34C364.011 49.4107 363.673 48.8127 363.326 48.206C362.997 47.5993 362.65 47.01 362.286 46.438C361.94 45.866 361.593 45.3287 361.246 44.826C360.9 44.306 360.553 43.838 360.206 43.422H358.204V50H354.148V32.242C355.032 32.0687 355.942 31.9473 356.878 31.878C357.832 31.8087 358.681 31.774 359.426 31.774ZM359.66 35.232C359.366 35.232 359.097 35.2407 358.854 35.258C358.629 35.2753 358.412 35.2927 358.204 35.31V40.198H359.348C360.874 40.198 361.966 40.0073 362.624 39.626C363.283 39.2447 363.612 38.5947 363.612 37.676C363.612 36.792 363.274 36.168 362.598 35.804C361.94 35.4227 360.96 35.232 359.66 35.232ZM371.49 50V31.982H383.658V35.388H375.546V38.924H382.748V42.252H375.546V46.594H384.256V50H371.49ZM399.322 50C399.131 49.376 398.914 48.7347 398.672 48.076C398.446 47.4173 398.221 46.7587 397.996 46.1H390.976C390.75 46.7587 390.516 47.4173 390.274 48.076C390.048 48.7347 389.84 49.376 389.65 50H385.438C386.114 48.0587 386.755 46.2647 387.362 44.618C387.968 42.9713 388.558 41.42 389.13 39.964C389.719 38.508 390.291 37.13 390.846 35.83C391.418 34.5127 392.007 33.23 392.614 31.982H396.488C397.077 33.23 397.658 34.5127 398.23 35.83C398.802 37.13 399.374 38.508 399.946 39.964C400.535 41.42 401.133 42.9713 401.74 44.618C402.346 46.2647 402.988 48.0587 403.664 50H399.322ZM394.46 36.064C394.373 36.324 394.243 36.6793 394.07 37.13C393.896 37.5807 393.697 38.1007 393.472 38.69C393.246 39.2793 392.995 39.9293 392.718 40.64C392.458 41.3507 392.189 42.096 391.912 42.876H397.034C396.756 42.096 396.488 41.3507 396.228 40.64C395.968 39.9293 395.716 39.2793 395.474 38.69C395.248 38.1007 395.049 37.5807 394.876 37.13C394.702 36.6793 394.564 36.324 394.46 36.064ZM417.227 31.982V35.44H411.793V50H407.737V35.44H402.303V31.982H417.227ZM419.834 50V31.982H432.002V35.388H423.89V38.924H431.092V42.252H423.89V46.594H432.6V50H419.834ZM453.912 50C453.721 49.376 453.504 48.7347 453.262 48.076C453.036 47.4173 452.811 46.7587 452.586 46.1H445.566C445.34 46.7587 445.106 47.4173 444.864 48.076C444.638 48.7347 444.43 49.376 444.24 50H440.028C440.704 48.0587 441.345 46.2647 441.952 44.618C442.558 42.9713 443.148 41.42 443.72 39.964C444.309 38.508 444.881 37.13 445.436 35.83C446.008 34.5127 446.597 33.23 447.204 31.982H451.078C451.667 33.23 452.248 34.5127 452.82 35.83C453.392 37.13 453.964 38.508 454.536 39.964C455.125 41.42 455.723 42.9713 456.33 44.618C456.936 46.2647 457.578 48.0587 458.254 50H453.912ZM449.05 36.064C448.963 36.324 448.833 36.6793 448.66 37.13C448.486 37.5807 448.287 38.1007 448.062 38.69C447.836 39.2793 447.585 39.9293 447.308 40.64C447.048 41.3507 446.779 42.096 446.502 42.876H451.624C451.346 42.096 451.078 41.3507 450.818 40.64C450.558 39.9293 450.306 39.2793 450.064 38.69C449.838 38.1007 449.639 37.5807 449.466 37.13C449.292 36.6793 449.154 36.324 449.05 36.064ZM468.142 50.364C465.212 50.364 462.976 49.5493 461.434 47.92C459.908 46.2907 459.146 43.9767 459.146 40.978C459.146 39.4873 459.38 38.1613 459.848 37C460.316 35.8213 460.957 34.8333 461.772 34.036C462.586 33.2213 463.557 32.606 464.684 32.19C465.81 31.774 467.032 31.566 468.35 31.566C469.112 31.566 469.806 31.6267 470.43 31.748C471.054 31.852 471.6 31.982 472.068 32.138C472.536 32.2767 472.926 32.424 473.238 32.58C473.55 32.736 473.775 32.8573 473.914 32.944L472.744 36.22C472.189 35.9253 471.539 35.674 470.794 35.466C470.066 35.258 469.234 35.154 468.298 35.154C467.674 35.154 467.058 35.258 466.452 35.466C465.862 35.674 465.334 36.012 464.866 36.48C464.415 36.9307 464.051 37.52 463.774 38.248C463.496 38.976 463.358 39.86 463.358 40.9C463.358 41.732 463.444 42.512 463.618 43.24C463.808 43.9507 464.103 44.566 464.502 45.086C464.918 45.606 465.455 46.022 466.114 46.334C466.772 46.6287 467.57 46.776 468.506 46.776C469.095 46.776 469.624 46.7413 470.092 46.672C470.56 46.6027 470.976 46.5247 471.34 46.438C471.704 46.334 472.024 46.2213 472.302 46.1C472.579 45.9787 472.83 45.866 473.056 45.762L474.174 49.012C473.602 49.3587 472.796 49.6707 471.756 49.948C470.716 50.2253 469.511 50.364 468.142 50.364ZM484.341 50.364C481.412 50.364 479.176 49.5493 477.633 47.92C476.108 46.2907 475.345 43.9767 475.345 40.978C475.345 39.4873 475.579 38.1613 476.047 37C476.515 35.8213 477.156 34.8333 477.971 34.036C478.786 33.2213 479.756 32.606 480.883 32.19C482.01 31.774 483.232 31.566 484.549 31.566C485.312 31.566 486.005 31.6267 486.629 31.748C487.253 31.852 487.799 31.982 488.267 32.138C488.735 32.2767 489.125 32.424 489.437 32.58C489.749 32.736 489.974 32.8573 490.113 32.944L488.943 36.22C488.388 35.9253 487.738 35.674 486.993 35.466C486.265 35.258 485.433 35.154 484.497 35.154C483.873 35.154 483.258 35.258 482.651 35.466C482.062 35.674 481.533 36.012 481.065 36.48C480.614 36.9307 480.25 37.52 479.973 38.248C479.696 38.976 479.557 39.86 479.557 40.9C479.557 41.732 479.644 42.512 479.817 43.24C480.008 43.9507 480.302 44.566 480.701 45.086C481.117 45.606 481.654 46.022 482.313 46.334C482.972 46.6287 483.769 46.776 484.705 46.776C485.294 46.776 485.823 46.7413 486.291 46.672C486.759 46.6027 487.175 46.5247 487.539 46.438C487.903 46.334 488.224 46.2213 488.501 46.1C488.778 45.9787 489.03 45.866 489.255 45.762L490.373 49.012C489.801 49.3587 488.995 49.6707 487.955 49.948C486.915 50.2253 485.71 50.364 484.341 50.364ZM495.73 40.978C495.73 41.862 495.834 42.6593 496.042 43.37C496.267 44.0807 496.579 44.696 496.978 45.216C497.394 45.7187 497.897 46.1087 498.486 46.386C499.075 46.6633 499.751 46.802 500.514 46.802C501.259 46.802 501.927 46.6633 502.516 46.386C503.123 46.1087 503.625 45.7187 504.024 45.216C504.44 44.696 504.752 44.0807 504.96 43.37C505.185 42.6593 505.298 41.862 505.298 40.978C505.298 40.094 505.185 39.2967 504.96 38.586C504.752 37.858 504.44 37.2427 504.024 36.74C503.625 36.22 503.123 35.8213 502.516 35.544C501.927 35.2667 501.259 35.128 500.514 35.128C499.751 35.128 499.075 35.2753 498.486 35.57C497.897 35.8473 497.394 36.246 496.978 36.766C496.579 37.2687 496.267 37.884 496.042 38.612C495.834 39.3227 495.73 40.1113 495.73 40.978ZM509.484 40.978C509.484 42.5207 509.25 43.8813 508.782 45.06C508.331 46.2213 507.707 47.2007 506.91 47.998C506.113 48.778 505.159 49.3673 504.05 49.766C502.958 50.1647 501.779 50.364 500.514 50.364C499.283 50.364 498.122 50.1647 497.03 49.766C495.938 49.3673 494.985 48.778 494.17 47.998C493.355 47.2007 492.714 46.2213 492.246 45.06C491.778 43.8813 491.544 42.5207 491.544 40.978C491.544 39.4353 491.787 38.0833 492.272 36.922C492.757 35.7433 493.407 34.7553 494.222 33.958C495.054 33.1607 496.007 32.5627 497.082 32.164C498.174 31.7653 499.318 31.566 500.514 31.566C501.745 31.566 502.906 31.7653 503.998 32.164C505.09 32.5627 506.043 33.1607 506.858 33.958C507.673 34.7553 508.314 35.7433 508.782 36.922C509.25 38.0833 509.484 39.4353 509.484 40.978ZM519.911 50.364C518.646 50.364 517.554 50.1907 516.635 49.844C515.716 49.48 514.954 48.986 514.347 48.362C513.758 47.7207 513.316 46.9667 513.021 46.1C512.744 45.216 512.605 44.2453 512.605 43.188V31.982H516.661V42.85C516.661 43.578 516.739 44.202 516.895 44.722C517.068 45.2247 517.294 45.6407 517.571 45.97C517.866 46.282 518.212 46.5073 518.611 46.646C519.027 46.7847 519.478 46.854 519.963 46.854C520.951 46.854 521.748 46.5507 522.355 45.944C522.979 45.3373 523.291 44.306 523.291 42.85V31.982H527.347V43.188C527.347 44.2453 527.2 45.216 526.905 46.1C526.61 46.984 526.16 47.7467 525.553 48.388C524.946 49.012 524.175 49.4973 523.239 49.844C522.303 50.1907 521.194 50.364 519.911 50.364ZM543.338 50C542.177 47.9373 540.92 45.9007 539.568 43.89C538.216 41.8793 536.777 39.9813 535.252 38.196V50H531.248V31.982H534.55C535.122 32.554 535.755 33.256 536.448 34.088C537.141 34.92 537.843 35.8127 538.554 36.766C539.282 37.702 540.001 38.6813 540.712 39.704C541.423 40.7093 542.09 41.68 542.714 42.616V31.982H546.744V50H543.338ZM564.264 31.982V35.44H558.83V50H554.774V35.44H549.34V31.982H564.264Z" fill="#0B2545"/>
<rect x="2" y="192" width="251" height="76" rx="18" fill="#EEF4ED"/>
<rect x="2" y="192" width="251" height="76" rx="18" stroke="#0B2545" stroke-width="4"/>
<path d="M54.2672 226.981L41.7672 214.481C41.2984 214.013 40.6628 213.75 40 213.75C39.3373 213.75 38.7016 214.013 38.2328 214.481L25.7328 226.981C25.4996 227.213 25.3146 227.488 25.1888 227.792C25.063 228.096 24.9988 228.421 25 228.75V243.75C25 244.082 25.1317 244.399 25.3661 244.634C25.6006 244.868 25.9185 245 26.25 245H53.75C54.0815 245 54.3995 244.868 54.6339 244.634C54.8683 244.399 55 244.082 55 243.75V228.75C55.0012 228.421 54.937 228.096 54.8112 227.792C54.6854 227.488 54.5005 227.213 54.2672 226.981ZM52.5 242.5H27.5V228.75L40 216.25L52.5 228.75V242.5Z" fill="#0B2545"/>
<path d="M76.3577 236.698C76.5483 236.715 76.765 236.733 77.0077 236.75C77.2677 236.75 77.571 236.75 77.9177 236.75C79.9457 236.75 81.445 236.239 82.4157 235.216C83.4037 234.193 83.8977 232.781 83.8977 230.978C83.8977 229.089 83.4297 227.659 82.4937 226.688C81.5577 225.717 80.0757 225.232 78.0477 225.232C77.7703 225.232 77.4843 225.241 77.1897 225.258C76.895 225.258 76.6177 225.275 76.3577 225.31V236.698ZM88.0837 230.978C88.0837 232.538 87.841 233.899 87.3557 235.06C86.8703 236.221 86.177 237.183 85.2757 237.946C84.3917 238.709 83.3083 239.281 82.0257 239.662C80.743 240.043 79.3043 240.234 77.7097 240.234C76.9817 240.234 76.1323 240.199 75.1617 240.13C74.191 240.078 73.2377 239.957 72.3017 239.766V222.216C73.2377 222.043 74.2083 221.93 75.2137 221.878C76.2363 221.809 77.1117 221.774 77.8397 221.774C79.3823 221.774 80.7777 221.947 82.0257 222.294C83.291 222.641 84.3743 223.187 85.2757 223.932C86.177 224.677 86.8703 225.631 87.3557 226.792C87.841 227.953 88.0837 229.349 88.0837 230.978ZM102.875 240C102.685 239.376 102.468 238.735 102.225 238.076C102 237.417 101.775 236.759 101.549 236.1H94.5294C94.3041 236.759 94.0701 237.417 93.8274 238.076C93.6021 238.735 93.3941 239.376 93.2034 240H88.9914C89.6674 238.059 90.3088 236.265 90.9154 234.618C91.5221 232.971 92.1114 231.42 92.6834 229.964C93.2728 228.508 93.8448 227.13 94.3994 225.83C94.9714 224.513 95.5608 223.23 96.1674 221.982H100.041C100.631 223.23 101.211 224.513 101.783 225.83C102.355 227.13 102.927 228.508 103.499 229.964C104.089 231.42 104.687 232.971 105.293 234.618C105.9 236.265 106.541 238.059 107.217 240H102.875ZM98.0134 226.064C97.9268 226.324 97.7968 226.679 97.6234 227.13C97.4501 227.581 97.2508 228.101 97.0254 228.69C96.8001 229.279 96.5488 229.929 96.2714 230.64C96.0114 231.351 95.7428 232.096 95.4654 232.876H100.587C100.31 232.096 100.041 231.351 99.7814 230.64C99.5214 229.929 99.2701 229.279 99.0274 228.69C98.8021 228.101 98.6028 227.581 98.4294 227.13C98.2561 226.679 98.1174 226.324 98.0134 226.064ZM114.946 236.906C115.518 236.906 115.986 236.863 116.35 236.776C116.731 236.672 117.035 236.542 117.26 236.386C117.485 236.213 117.641 236.013 117.728 235.788C117.815 235.563 117.858 235.311 117.858 235.034C117.858 234.445 117.581 233.959 117.026 233.578C116.471 233.179 115.518 232.755 114.166 232.304C113.577 232.096 112.987 231.862 112.398 231.602C111.809 231.325 111.28 230.987 110.812 230.588C110.344 230.172 109.963 229.678 109.668 229.106C109.373 228.517 109.226 227.806 109.226 226.974C109.226 226.142 109.382 225.397 109.694 224.738C110.006 224.062 110.448 223.49 111.02 223.022C111.592 222.554 112.285 222.199 113.1 221.956C113.915 221.696 114.833 221.566 115.856 221.566C117.069 221.566 118.118 221.696 119.002 221.956C119.886 222.216 120.614 222.502 121.186 222.814L120.016 226.012C119.513 225.752 118.95 225.527 118.326 225.336C117.719 225.128 116.983 225.024 116.116 225.024C115.145 225.024 114.443 225.163 114.01 225.44C113.594 225.7 113.386 226.107 113.386 226.662C113.386 226.991 113.464 227.269 113.62 227.494C113.776 227.719 113.993 227.927 114.27 228.118C114.565 228.291 114.894 228.456 115.258 228.612C115.639 228.751 116.055 228.898 116.506 229.054C117.442 229.401 118.257 229.747 118.95 230.094C119.643 230.423 120.215 230.813 120.666 231.264C121.134 231.715 121.481 232.243 121.706 232.85C121.931 233.457 122.044 234.193 122.044 235.06C122.044 236.741 121.455 238.05 120.276 238.986C119.097 239.905 117.321 240.364 114.946 240.364C114.149 240.364 113.429 240.312 112.788 240.208C112.147 240.121 111.575 240.009 111.072 239.87C110.587 239.731 110.162 239.584 109.798 239.428C109.451 239.272 109.157 239.125 108.914 238.986L110.058 235.762C110.595 236.057 111.254 236.325 112.034 236.568C112.831 236.793 113.802 236.906 114.946 236.906ZM136.033 221.982H140.089V240H136.033V232.356H129.221V240H125.165V221.982H129.221V228.872H136.033V221.982ZM150.265 240.234C149.277 240.234 148.289 240.199 147.301 240.13C146.33 240.078 145.316 239.939 144.259 239.714V222.242C145.091 222.086 146.001 221.973 146.989 221.904C147.977 221.817 148.895 221.774 149.745 221.774C150.889 221.774 151.937 221.861 152.891 222.034C153.861 222.19 154.693 222.467 155.387 222.866C156.08 223.265 156.617 223.793 156.999 224.452C157.397 225.093 157.597 225.891 157.597 226.844C157.597 228.283 156.903 229.418 155.517 230.25C156.661 230.683 157.441 231.273 157.857 232.018C158.273 232.763 158.481 233.604 158.481 234.54C158.481 236.429 157.787 237.851 156.401 238.804C155.031 239.757 152.986 240.234 150.265 240.234ZM148.211 232.148V236.802C148.505 236.837 148.826 236.863 149.173 236.88C149.519 236.897 149.901 236.906 150.317 236.906C151.53 236.906 152.509 236.733 153.255 236.386C154 236.039 154.373 235.398 154.373 234.462C154.373 233.63 154.061 233.041 153.437 232.694C152.813 232.33 151.92 232.148 150.759 232.148H148.211ZM148.211 229.054H150.187C151.435 229.054 152.327 228.898 152.865 228.586C153.402 228.257 153.671 227.737 153.671 227.026C153.671 226.298 153.393 225.787 152.839 225.492C152.284 225.197 151.469 225.05 150.395 225.05C150.048 225.05 149.675 225.059 149.277 225.076C148.878 225.076 148.523 225.093 148.211 225.128V229.054ZM165.133 230.978C165.133 231.862 165.237 232.659 165.445 233.37C165.671 234.081 165.983 234.696 166.381 235.216C166.797 235.719 167.3 236.109 167.889 236.386C168.479 236.663 169.155 236.802 169.917 236.802C170.663 236.802 171.33 236.663 171.919 236.386C172.526 236.109 173.029 235.719 173.427 235.216C173.843 234.696 174.155 234.081 174.363 233.37C174.589 232.659 174.701 231.862 174.701 230.978C174.701 230.094 174.589 229.297 174.363 228.586C174.155 227.858 173.843 227.243 173.427 226.74C173.029 226.22 172.526 225.821 171.919 225.544C171.33 225.267 170.663 225.128 169.917 225.128C169.155 225.128 168.479 225.275 167.889 225.57C167.3 225.847 166.797 226.246 166.381 226.766C165.983 227.269 165.671 227.884 165.445 228.612C165.237 229.323 165.133 230.111 165.133 230.978ZM178.887 230.978C178.887 232.521 178.653 233.881 178.185 235.06C177.735 236.221 177.111 237.201 176.313 237.998C175.516 238.778 174.563 239.367 173.453 239.766C172.361 240.165 171.183 240.364 169.917 240.364C168.687 240.364 167.525 240.165 166.433 239.766C165.341 239.367 164.388 238.778 163.573 237.998C162.759 237.201 162.117 236.221 161.649 235.06C161.181 233.881 160.947 232.521 160.947 230.978C160.947 229.435 161.19 228.083 161.675 226.922C162.161 225.743 162.811 224.755 163.625 223.958C164.457 223.161 165.411 222.563 166.485 222.164C167.577 221.765 168.721 221.566 169.917 221.566C171.148 221.566 172.309 221.765 173.401 222.164C174.493 222.563 175.447 223.161 176.261 223.958C177.076 224.755 177.717 225.743 178.185 226.922C178.653 228.083 178.887 229.435 178.887 230.978ZM193.672 240C193.482 239.376 193.265 238.735 193.022 238.076C192.797 237.417 192.572 236.759 192.346 236.1H185.326C185.101 236.759 184.867 237.417 184.624 238.076C184.399 238.735 184.191 239.376 184 240H179.788C180.464 238.059 181.106 236.265 181.712 234.618C182.319 232.971 182.908 231.42 183.48 229.964C184.07 228.508 184.642 227.13 185.196 225.83C185.768 224.513 186.358 223.23 186.964 221.982H190.838C191.428 223.23 192.008 224.513 192.58 225.83C193.152 227.13 193.724 228.508 194.296 229.964C194.886 231.42 195.484 232.971 196.09 234.618C196.697 236.265 197.338 238.059 198.014 240H193.672ZM188.81 226.064C188.724 226.324 188.594 226.679 188.42 227.13C188.247 227.581 188.048 228.101 187.822 228.69C187.597 229.279 187.346 229.929 187.068 230.64C186.808 231.351 186.54 232.096 186.262 232.876H191.384C191.107 232.096 190.838 231.351 190.578 230.64C190.318 229.929 190.067 229.279 189.824 228.69C189.599 228.101 189.4 227.581 189.226 227.13C189.053 226.679 188.914 226.324 188.81 226.064ZM205.625 221.774C208.329 221.774 210.4 222.259 211.839 223.23C213.277 224.183 213.997 225.674 213.997 227.702C213.997 228.967 213.702 229.999 213.113 230.796C212.541 231.576 211.709 232.191 210.617 232.642C210.981 233.093 211.362 233.613 211.761 234.202C212.159 234.774 212.549 235.381 212.931 236.022C213.329 236.646 213.711 237.305 214.075 237.998C214.439 238.674 214.777 239.341 215.089 240H210.539C210.209 239.411 209.871 238.813 209.525 238.206C209.195 237.599 208.849 237.01 208.485 236.438C208.138 235.866 207.791 235.329 207.445 234.826C207.098 234.306 206.751 233.838 206.405 233.422H204.403V240H200.347V222.242C201.231 222.069 202.141 221.947 203.077 221.878C204.03 221.809 204.879 221.774 205.625 221.774ZM205.859 225.232C205.564 225.232 205.295 225.241 205.053 225.258C204.827 225.275 204.611 225.293 204.403 225.31V230.198H205.547C207.072 230.198 208.164 230.007 208.823 229.626C209.481 229.245 209.811 228.595 209.811 227.676C209.811 226.792 209.473 226.168 208.797 225.804C208.138 225.423 207.159 225.232 205.859 225.232ZM221.744 236.698C221.935 236.715 222.152 236.733 222.394 236.75C222.654 236.75 222.958 236.75 223.304 236.75C225.332 236.75 226.832 236.239 227.802 235.216C228.79 234.193 229.284 232.781 229.284 230.978C229.284 229.089 228.816 227.659 227.88 226.688C226.944 225.717 225.462 225.232 223.434 225.232C223.157 225.232 222.871 225.241 222.576 225.258C222.282 225.258 222.004 225.275 221.744 225.31V236.698ZM233.47 230.978C233.47 232.538 233.228 233.899 232.742 235.06C232.257 236.221 231.564 237.183 230.662 237.946C229.778 238.709 228.695 239.281 227.412 239.662C226.13 240.043 224.691 240.234 223.096 240.234C222.368 240.234 221.519 240.199 220.548 240.13C219.578 240.078 218.624 239.957 217.688 239.766V222.216C218.624 222.043 219.595 221.93 220.6 221.878C221.623 221.809 222.498 221.774 223.226 221.774C224.769 221.774 226.164 221.947 227.412 222.294C228.678 222.641 229.761 223.187 230.662 223.932C231.564 224.677 232.257 225.631 232.742 226.792C233.228 227.953 233.47 229.349 233.47 230.978Z" fill="#0B2545"/>
<path d="M311.061 38.9393C311.646 39.5251 311.646 40.4749 311.061 41.0607L301.515 50.6066C300.929 51.1924 299.979 51.1924 299.393 50.6066C298.808 50.0208 298.808 49.0711 299.393 48.4853L307.879 40L299.393 31.5147C298.808 30.9289 298.808 29.9792 299.393 29.3934C299.979 28.8076 300.929 28.8076 301.515 29.3934L311.061 38.9393ZM213 38.5L310 38.5L310 41.5L213 41.5L213 38.5Z" fill="#0B2545"/>
<path d="M128.061 178.061C127.475 178.646 126.525 178.646 125.939 178.061L116.393 168.515C115.808 167.929 115.808 166.979 116.393 166.393C116.979 165.808 117.929 165.808 118.515 166.393L127 174.879L135.485 166.393C136.071 165.808 137.021 165.808 137.607 166.393C138.192 166.979 138.192 167.929 137.607 168.515L128.061 178.061ZM128.5 80V177L125.5 177V80L128.5 80Z" fill="#0B2545"/>
</svg>
